<svg width="190" height="174" viewBox="0 0 190 174" fill="none" xmlns="http://www.w3.org/2000/svg">
<g clip-path="url(#clip0_24_133)">
<path d="M134.665 159.574H48.0005C45.9423 159.571 43.9691 158.756 42.514 157.308C41.0589 155.859 40.2408 153.895 40.2392 151.846V118.69C40.0598 118.894 39.872 119.094 39.6786 119.29V151.846C39.6806 154.043 40.5579 156.148 42.1181 157.702C43.6782 159.255 45.7938 160.129 48.0005 160.132H134.909C134.825 159.948 134.743 159.761 134.665 159.574ZM40.2392 37.02C40.2408 34.9715 41.0589 33.0073 42.514 31.5585C43.9691 30.1097 45.9423 29.2947 48.0005 29.2924H76.8765C76.8233 29.1055 76.7728 28.9213 76.7251 28.7344H48.0005C45.7938 28.7372 43.6782 29.6111 42.1181 31.1644C40.5579 32.7177 39.6806 34.8236 39.6786 37.02V87.8493C39.872 88.0445 40.057 88.2454 40.2392 88.4491V37.02ZM156.606 43.5369L138.499 29.2617C138.067 28.9206 137.532 28.7348 136.98 28.7344H120.866C120.821 28.9213 120.771 29.1083 120.717 29.2924H136.98C137.405 29.2934 137.817 29.4358 138.152 29.6969L156.259 43.9748C156.431 44.1098 156.57 44.2819 156.665 44.4781C156.76 44.6743 156.809 44.8896 156.808 45.1075V128.195C156.996 128.2 157.184 128.214 157.369 128.228V45.1075C157.37 44.8053 157.302 44.5068 157.17 44.2346C157.038 43.9625 156.845 43.7239 156.606 43.5369Z" fill="#3F3D56"/>
<path d="M156.367 44.2738H141.757C141.228 44.2738 140.706 44.1703 140.218 43.9691C139.73 43.768 139.286 43.4731 138.913 43.1014C138.539 42.7298 138.243 42.2885 138.041 41.8029C137.839 41.3172 137.735 40.7967 137.735 40.2711V29.5308C137.735 29.4837 137.748 29.4377 137.773 29.3978C137.798 29.358 137.834 29.326 137.877 29.3055C137.919 29.2851 137.967 29.2769 138.014 29.2821C138.061 29.2872 138.105 29.3055 138.142 29.3347L156.523 43.8276C156.564 43.8598 156.594 43.9039 156.609 43.9538C156.623 44.0037 156.622 44.0568 156.605 44.1059C156.587 44.1549 156.555 44.1975 156.513 44.2276C156.47 44.2576 156.419 44.2738 156.367 44.2738Z" fill="#A8A29E"/>
<path d="M156.367 44.5528H141.757C140.616 44.5515 139.523 44.1 138.716 43.2973C137.91 42.4945 137.456 41.4062 137.455 40.271V29.5308C137.455 29.4313 137.483 29.3339 137.536 29.2496C137.589 29.1653 137.665 29.0977 137.755 29.0544C137.845 29.0111 137.945 28.9939 138.044 29.0047C138.144 29.0156 138.238 29.0541 138.316 29.1158L156.697 43.6089C156.784 43.6771 156.847 43.7705 156.878 43.8759C156.908 43.9814 156.906 44.0939 156.869 44.1976C156.833 44.3014 156.765 44.3913 156.675 44.455C156.585 44.5186 156.477 44.5528 156.367 44.5528ZM138.015 29.5903V40.271C138.016 41.2583 138.411 42.2048 139.112 42.9029C139.814 43.601 140.765 43.9937 141.757 43.9948H156.284L138.015 29.5903Z" fill="#3F3D56"/>
<path d="M127.365 62.7865H84.383C83.8497 62.7865 83.3383 62.5756 82.9611 62.2003C82.584 61.8249 82.3722 61.3159 82.3722 60.7851C82.3722 60.2543 82.584 59.7452 82.9611 59.3699C83.3383 58.9946 83.8497 58.7837 84.383 58.7837H127.365C127.898 58.7837 128.409 58.9946 128.786 59.3699C129.164 59.7452 129.375 60.2543 129.375 60.7851C129.375 61.3159 129.164 61.8249 128.786 62.2003C128.409 62.5756 127.898 62.7865 127.365 62.7865Z" fill="#CCCCCC"/>
<path d="M135.659 69.5411H84.383C83.8497 69.5411 83.3383 69.3302 82.9611 68.9549C82.584 68.5796 82.3722 68.0705 82.3722 67.5397C82.3722 67.0089 82.584 66.4998 82.9611 66.1245C83.3383 65.7492 83.8497 65.5383 84.383 65.5383H135.659C136.193 65.5383 136.704 65.7492 137.081 66.1245C137.458 66.4998 137.67 67.0089 137.67 67.5397C137.67 68.0705 137.458 68.5796 137.081 68.9549C136.704 69.3302 136.193 69.5411 135.659 69.5411Z" fill="#CCCCCC"/>
<path d="M127.365 93.0571H84.383C83.8497 93.0571 83.3383 92.8463 82.9611 92.4709C82.584 92.0956 82.3722 91.5865 82.3722 91.0557C82.3722 90.5249 82.584 90.0159 82.9611 89.6406C83.3383 89.2652 83.8497 89.0544 84.383 89.0544H127.365C127.898 89.0544 128.409 89.2652 128.786 89.6406C129.164 90.0159 129.375 90.5249 129.375 91.0557C129.375 91.5865 129.164 92.0956 128.786 92.4709C128.409 92.8463 127.898 93.0571 127.365 93.0571Z" fill="#CCCCCC"/>
<path d="M135.659 99.8118H84.383C83.8497 99.8118 83.3383 99.6009 82.9611 99.2256C82.584 98.8502 82.3722 98.3412 82.3722 97.8104C82.3722 97.2796 82.584 96.7705 82.9611 96.3952C83.3383 96.0199 83.8497 95.809 84.383 95.809H135.659C136.193 95.809 136.704 96.0199 137.081 96.3952C137.458 96.7705 137.67 97.2796 137.67 97.8104C137.67 98.3412 137.458 98.8502 137.081 99.2256C136.704 99.6009 136.193 99.8118 135.659 99.8118Z" fill="#CCCCCC"/>
<path d="M127.365 123.328H84.383C84.119 123.328 83.8575 123.276 83.6135 123.175C83.3696 123.075 83.1479 122.927 82.9611 122.742C82.7744 122.556 82.6263 122.335 82.5253 122.092C82.4242 121.85 82.3722 121.589 82.3722 121.326C82.3722 121.064 82.4242 120.803 82.5253 120.561C82.6263 120.318 82.7744 120.097 82.9611 119.911C83.1479 119.725 83.3696 119.578 83.6135 119.477C83.8575 119.377 84.119 119.325 84.383 119.325H127.365C127.898 119.325 128.409 119.536 128.786 119.911C129.164 120.287 129.375 120.796 129.375 121.326C129.375 121.857 129.164 122.366 128.786 122.742C128.409 123.117 127.898 123.328 127.365 123.328Z" fill="#CCCCCC"/>
<path d="M135.659 130.082H84.383C84.119 130.082 83.8575 130.031 83.6135 129.93C83.3696 129.829 83.1479 129.682 82.9611 129.496C82.7744 129.31 82.6263 129.09 82.5253 128.847C82.4242 128.604 82.3722 128.344 82.3722 128.081C82.3722 127.818 82.4242 127.558 82.5253 127.315C82.6263 127.072 82.7744 126.852 82.9611 126.666C83.1479 126.48 83.3696 126.333 83.6135 126.232C83.8575 126.131 84.119 126.08 84.383 126.08H135.659C135.923 126.08 136.185 126.131 136.429 126.232C136.673 126.333 136.894 126.48 137.081 126.666C137.268 126.852 137.416 127.072 137.517 127.315C137.618 127.558 137.67 127.818 137.67 128.081C137.67 128.344 137.618 128.604 137.517 128.847C137.416 129.09 137.268 129.31 137.081 129.496C136.894 129.682 136.673 129.829 136.429 129.93C136.185 130.031 135.923 130.082 135.659 130.082Z" fill="#CCCCCC"/>
<path d="M66.4844 71.2361C70.4096 71.2361 73.5916 68.0691 73.5916 64.1624C73.5916 60.2557 70.4096 57.0887 66.4844 57.0887C62.5592 57.0887 59.3772 60.2557 59.3772 64.1624C59.3772 68.0691 62.5592 71.2361 66.4844 71.2361Z" fill="#FF6B6B"/>
<path d="M65.7801 66.8608C65.6202 66.8611 65.4645 66.8096 65.3366 66.7141L65.3287 66.7082L63.6584 65.4365C63.5809 65.3775 63.5158 65.3039 63.4669 65.2199C63.4179 65.1359 63.3861 65.0431 63.3733 64.9468C63.3604 64.8506 63.3668 64.7527 63.392 64.6589C63.4171 64.5651 63.4606 64.4771 63.52 64.4C63.5794 64.323 63.6534 64.2583 63.7379 64.2097C63.8224 64.1612 63.9157 64.1297 64.0125 64.117C64.1092 64.1044 64.2075 64.1109 64.3017 64.1361C64.3959 64.1613 64.4843 64.2047 64.5616 64.2639L65.6435 65.0896L68.2 61.7701C68.2593 61.6931 68.3332 61.6285 68.4176 61.58C68.5019 61.5315 68.5951 61.5 68.6917 61.4873C68.7883 61.4746 68.8864 61.4809 68.9806 61.506C69.0747 61.531 69.1629 61.5743 69.2403 61.6333L69.2246 61.6554L69.2409 61.6335C69.3969 61.7528 69.499 61.9289 69.5247 62.123C69.5504 62.3171 69.4977 62.5135 69.3781 62.669L66.3711 66.5718C66.3015 66.6618 66.2121 66.7345 66.1097 66.7845C66.0073 66.8345 65.8947 66.8603 65.7807 66.8599L65.7801 66.8608Z" fill="white"/>
<path d="M66.4844 101.507C70.4096 101.507 73.5916 98.3398 73.5916 94.4331C73.5916 90.5264 70.4096 87.3593 66.4844 87.3593C62.5592 87.3593 59.3772 90.5264 59.3772 94.4331C59.3772 98.3398 62.5592 101.507 66.4844 101.507Z" fill="#A8A29E"/>
<path d="M65.7801 97.1315C65.6202 97.1317 65.4646 97.0803 65.3367 96.9848L65.3287 96.9789L63.6585 95.7072C63.5022 95.588 63.4 95.4119 63.3742 95.2176C63.3484 95.0234 63.4012 94.8269 63.521 94.6714C63.6408 94.5159 63.8177 94.4141 64.0129 94.3885C64.208 94.3628 64.4054 94.4154 64.5617 94.5346L65.6435 95.3603L68.2001 92.0407C68.2594 91.9638 68.3333 91.8992 68.4177 91.8507C68.502 91.8021 68.5951 91.7706 68.6917 91.7579C68.7883 91.7452 68.8865 91.7516 68.9806 91.7766C69.0748 91.8017 69.163 91.845 69.2403 91.904L69.2247 91.9261L69.241 91.9041C69.397 92.0235 69.499 92.1995 69.5248 92.3937C69.5505 92.5878 69.4978 92.7842 69.3782 92.9397L66.3712 96.8425C66.3016 96.9324 66.2122 97.0052 66.1098 97.0551C66.0074 97.1051 65.8948 97.1309 65.7808 97.1306L65.7801 97.1315Z" fill="white"/>
<path d="M66.4844 131.777C70.4096 131.777 73.5916 128.61 73.5916 124.704C73.5916 120.797 70.4096 117.63 66.4844 117.63C62.5592 117.63 59.3772 120.797 59.3772 124.704C59.3772 128.61 62.5592 131.777 66.4844 131.777Z" fill="#A8A29E"/>
<path d="M65.7801 127.402C65.6202 127.402 65.4645 127.351 65.3366 127.255L65.3287 127.25L63.6584 125.978C63.5809 125.919 63.5158 125.845 63.4669 125.761C63.4179 125.677 63.3861 125.584 63.3733 125.488C63.3604 125.392 63.3668 125.294 63.392 125.2C63.4171 125.106 63.4606 125.018 63.52 124.941C63.5794 124.864 63.6534 124.8 63.7379 124.751C63.8224 124.703 63.9157 124.671 64.0125 124.658C64.1092 124.646 64.2075 124.652 64.3017 124.677C64.3959 124.703 64.4843 124.746 64.5616 124.805L65.6435 125.631L68.2 122.311C68.2593 122.234 68.3332 122.17 68.4176 122.121C68.5019 122.073 68.5951 122.041 68.6917 122.029C68.7883 122.016 68.8864 122.022 68.9806 122.047C69.0747 122.072 69.1629 122.116 69.2403 122.175L69.2246 122.197L69.2409 122.175C69.3969 122.294 69.499 122.47 69.5247 122.664C69.5504 122.858 69.4977 123.055 69.3781 123.21L66.3711 127.113C66.3015 127.203 66.2121 127.276 66.1097 127.326C66.0073 127.376 65.8947 127.402 65.7807 127.401L65.7801 127.402Z" fill="white"/>
<path d="M166.41 171.381C166.009 171.59 165.601 171.787 165.186 171.973C164.809 172.143 164.425 172.303 164.035 172.452C163.893 172.506 163.748 172.561 163.603 172.615C162.457 173.028 161.281 173.351 160.084 173.58C159.492 173.696 158.892 173.787 158.284 173.853C157.782 173.91 157.275 173.95 156.762 173.974C156.398 173.992 156.033 174 155.665 174C154.21 174.001 152.759 173.865 151.329 173.596C150.956 173.529 150.592 173.449 150.227 173.361C148.462 172.941 146.754 172.313 145.138 171.492C144.993 171.42 144.848 171.343 144.703 171.268C144.488 171.155 144.279 171.036 144.069 170.913C144.17 170.773 144.279 170.637 144.39 170.503C145.601 169.01 147.114 167.787 148.831 166.915C150.548 166.043 152.431 165.541 154.356 165.441C156.281 165.341 158.206 165.647 160.005 166.337C161.804 167.027 163.436 168.087 164.796 169.447C165.268 169.919 165.705 170.423 166.105 170.956C166.211 171.095 166.312 171.237 166.41 171.381Z" fill="#FF6B6B"/>
<path d="M156.182 160.07C162.456 160.07 167.542 155.007 167.542 148.763C167.542 142.518 162.456 137.456 156.182 137.456C149.907 137.456 144.821 142.518 144.821 148.763C144.821 155.007 149.907 160.07 156.182 160.07Z" fill="#343A40"/>
<path d="M159.203 160.086C163.301 157.856 164.807 152.743 162.567 148.665C160.327 144.587 155.189 143.088 151.092 145.317C146.994 147.547 145.489 152.66 147.728 156.738C149.968 160.816 155.106 162.315 159.203 160.086Z" fill="#A0616A"/>
<path d="M164.032 147.408C162.1 148.734 159.807 149.439 157.46 149.43C158.297 150.007 159.25 150.398 160.253 150.573C157.133 151.24 153.909 151.258 150.781 150.626C150.086 150.515 149.415 150.286 148.798 149.949C148.491 149.778 148.223 149.544 148.012 149.264C147.801 148.983 147.652 148.661 147.575 148.319C147.367 147.138 148.292 146.064 149.253 145.341C150.725 144.25 152.422 143.499 154.222 143.141C156.021 142.783 157.878 142.827 159.658 143.271C160.82 143.571 161.985 144.076 162.74 145.005C163.495 145.934 163.718 147.366 162.999 148.323L164.032 147.408Z" fill="#343A40"/>
<path d="M157.369 127.709C157.184 127.695 156.996 127.684 156.808 127.676C156.43 127.656 156.049 127.648 155.665 127.648C151.846 127.648 148.087 128.583 144.717 130.37C141.347 132.156 138.47 134.741 136.34 137.895C134.21 141.049 132.892 144.676 132.502 148.456C132.112 152.237 132.662 156.055 134.104 159.574C134.18 159.761 134.259 159.948 134.343 160.132C136.269 164.475 139.48 168.13 143.547 170.61L143.696 170.696C143.822 170.772 143.945 170.844 144.069 170.911C144.279 171.037 144.489 171.154 144.702 171.268C144.848 171.344 144.994 171.419 145.137 171.492C146.753 172.313 148.462 172.94 150.227 173.361C150.591 173.45 150.956 173.528 151.328 173.595C152.758 173.865 154.21 174 155.665 174C156.032 174 156.396 173.991 156.763 173.974C157.274 173.952 157.781 173.91 158.283 173.854C158.891 173.788 159.492 173.696 160.085 173.581C161.281 173.351 162.457 173.028 163.603 172.616C163.748 172.56 163.894 172.507 164.034 172.451C164.427 172.303 164.808 172.144 165.186 171.974C165.601 171.787 166.009 171.589 166.411 171.38C170.438 169.28 173.767 166.063 175.994 162.118C176.005 162.097 176.016 162.076 176.028 162.057C177.924 158.655 178.93 154.832 178.951 150.942C178.972 147.052 178.009 143.219 176.15 139.797C174.291 136.374 171.596 133.473 168.314 131.361C165.031 129.248 161.267 127.992 157.369 127.709ZM178.032 155.077C177.582 157.417 176.762 159.671 175.602 161.755C175.582 161.792 175.563 161.828 175.543 161.861C173.361 165.748 170.079 168.911 166.106 170.956C165.708 171.162 165.305 171.356 164.897 171.536C164.558 171.687 164.211 171.832 163.86 171.966C163.715 172.022 163.563 172.08 163.415 172.13C162.425 172.49 161.41 172.779 160.379 172.995C159.615 173.158 158.842 173.279 158.064 173.358C157.585 173.411 157.1 173.447 156.609 173.464C156.295 173.478 155.981 173.486 155.665 173.486C154.257 173.487 152.852 173.356 151.469 173.096C150.627 172.942 149.795 172.739 148.977 172.488C147.731 172.105 146.52 171.617 145.358 171.028C145.224 170.959 145.089 170.889 144.957 170.816C144.767 170.716 144.576 170.613 144.391 170.504C144.251 170.426 144.111 170.342 143.973 170.261C143.892 170.214 143.814 170.166 143.732 170.116C139.86 167.734 136.789 164.258 134.909 160.132C134.825 159.948 134.743 159.761 134.665 159.574C133.216 156.13 132.645 152.383 133.002 148.667C133.36 144.95 134.634 141.379 136.712 138.271C138.79 135.162 141.608 132.613 144.914 130.85C148.22 129.087 151.913 128.164 155.665 128.164C156.049 128.164 156.43 128.172 156.808 128.195C156.996 128.2 157.184 128.214 157.369 128.228C160.567 128.469 163.678 129.38 166.499 130.9C169.319 132.421 171.785 134.517 173.736 137.051C175.686 139.585 177.077 142.501 177.818 145.607C178.558 148.714 178.631 151.94 178.032 155.077Z" fill="#3F3D56"/>
<path d="M150.429 137.612C150.306 136.333 148.732 135.545 147.5 135.931C146.269 136.318 145.461 137.552 145.216 138.814C145.099 139.345 145.088 139.894 145.184 140.43C145.28 140.966 145.481 141.477 145.776 141.935C146.399 142.827 147.543 143.383 148.609 143.157C149.827 142.899 150.671 141.715 150.912 140.499C151.154 139.283 150.914 138.03 150.675 136.814L150.429 137.612Z" fill="#343A40"/>
<path d="M167.759 139.439C167.636 138.16 166.062 137.373 164.83 137.759C163.599 138.145 162.791 139.379 162.546 140.641C162.429 141.173 162.418 141.722 162.514 142.258C162.61 142.793 162.811 143.305 163.106 143.763C163.729 144.654 164.873 145.211 165.939 144.984C167.157 144.726 168.001 143.542 168.242 142.327C168.484 141.111 168.244 139.857 168.005 138.641L167.759 139.439Z" fill="#343A40"/>
<path d="M111.215 42.4728C107.611 44.77 103.435 46.0226 99.1555 46.0904C94.8759 46.1582 90.662 45.0383 86.986 42.8565C87.6326 41.6584 88.452 40.5609 89.4181 39.599C90.9086 38.1084 92.7226 36.9777 94.7207 36.2938C96.7188 35.6099 98.8479 35.3909 100.944 35.6538C103.041 35.9166 105.049 36.6543 106.814 37.81C108.579 38.9658 110.055 40.5089 111.127 42.3209C111.156 42.3698 111.187 42.4213 111.215 42.4728Z" fill="#FF6B6B"/>
<path d="M98.089 30.1589C104.405 30.1589 109.525 25.0629 109.525 18.7768C109.525 12.4906 104.405 7.39465 98.089 7.39465C91.7731 7.39465 86.6531 12.4906 86.6531 18.7768C86.6531 25.0629 91.7731 30.1589 98.089 30.1589Z" fill="#343A40"/>
<path d="M105.477 26.805C107.732 22.6998 106.216 17.5525 102.091 15.3084C97.9667 13.0642 92.7951 14.573 90.5404 18.6782C88.2856 22.7835 89.8015 27.9308 93.9262 30.1749C98.0509 32.4191 103.222 30.9103 105.477 26.805Z" fill="#FFB8B8"/>
<path d="M90.1865 17.4131C92.1315 18.7474 94.4401 19.4575 96.8023 19.4481C95.9597 20.0296 95.0004 20.4224 93.9906 20.5994C97.1313 21.2699 100.377 21.2881 103.525 20.6527C104.225 20.541 104.9 20.3102 105.521 19.9704C105.831 19.7984 106.1 19.5635 106.313 19.2809C106.525 18.9984 106.675 18.6745 106.753 18.3304C106.963 17.141 106.031 16.0604 105.064 15.3321C103.582 14.234 101.874 13.4775 100.062 13.1172C98.2507 12.757 96.3814 12.8019 94.5895 13.2489C93.4195 13.5499 92.2474 14.0585 91.4875 14.9937C90.7275 15.9289 90.5024 17.3707 91.2264 18.3337L90.1865 17.4131Z" fill="#343A40"/>
<path d="M98.79 0C92.6165 0.00683176 86.6978 2.45052 82.3322 6.79502C77.9666 11.1395 75.5107 17.03 75.5031 23.1745C75.504 25.0488 75.7356 26.9161 76.1926 28.7344C76.2402 28.9213 76.2878 29.1083 76.3383 29.2924C77.6815 34.1938 80.6073 38.5194 84.6646 41.6023C88.7219 44.6851 93.6855 46.354 98.79 46.3517C103.895 46.3516 108.86 44.682 112.919 41.5997C116.978 38.5175 119.907 34.1933 121.256 29.2924C121.306 29.1055 121.354 28.9213 121.398 28.7344C122.243 25.3205 122.296 21.7602 121.555 18.3227C120.813 14.8852 119.296 11.6605 117.118 8.89245C114.94 6.12438 112.159 3.88541 108.983 2.34485C105.808 0.804287 102.322 0.0024596 98.79 0ZM120.866 28.7344C120.821 28.9213 120.771 29.1083 120.717 29.2924C119.772 32.6446 118.063 35.735 115.724 38.3239C113.384 40.9129 110.477 42.9308 107.228 44.2212C103.979 45.5115 100.475 46.0397 96.9874 45.7648C93.5 45.4899 90.1231 44.4192 87.1185 42.6358C82.1249 39.645 78.4628 34.874 76.8765 29.2924C76.8232 29.1055 76.7727 28.9213 76.7251 28.7344C76.258 26.9177 76.0217 25.0498 76.0216 23.1745C76.0253 19.9644 76.7141 16.7918 78.0425 13.8666C79.371 10.9415 81.3087 8.33073 83.7273 6.20715C86.146 4.08358 88.9903 2.49569 92.072 1.54869C95.1537 0.60168 98.4024 0.317161 101.603 0.713971C104.803 1.11078 107.883 2.17987 110.637 3.85041C113.391 5.52096 115.757 7.75485 117.578 10.4041C119.399 13.0534 120.634 16.0575 121.201 19.2176C121.768 22.3777 121.654 25.6216 120.866 28.7344Z" fill="#3F3D56"/>
<path d="M35.7124 122.855C32.1082 125.152 27.9324 126.405 23.6531 126.473C19.3737 126.541 15.1598 125.422 11.4838 123.24C11.5229 123.165 11.5649 123.089 11.6098 123.017C12.789 120.901 14.5074 119.132 16.592 117.888C18.6766 116.644 21.0539 115.969 23.4842 115.93C25.9146 115.891 28.3124 116.49 30.4359 117.667C32.5595 118.845 34.334 120.558 35.5806 122.635C35.5975 122.657 35.6114 122.682 35.6255 122.704C35.6536 122.752 35.6844 122.805 35.7124 122.855Z" fill="#FF6B6B"/>
<path d="M34.0221 99.1589C34.0221 101.41 33.3514 103.611 32.0948 105.482C30.8382 107.354 29.0521 108.813 26.9625 109.675C24.8728 110.536 22.5734 110.761 20.355 110.322C18.1367 109.883 16.099 108.799 14.4997 107.207C12.9003 105.615 11.8111 103.587 11.3699 101.379C10.9286 99.1715 11.1551 96.8829 12.0207 94.8031C12.8862 92.7233 14.352 90.9456 16.2326 89.6949C18.1133 88.4443 20.3243 87.7767 22.5861 87.7767C24.0899 87.7696 25.5803 88.0591 26.971 88.6286C28.3617 89.198 29.6253 90.0362 30.6886 91.0945C31.752 92.1529 32.5941 93.4105 33.1663 94.7947C33.7384 96.1789 34.0293 97.6622 34.0221 99.1589Z" fill="#343A40"/>
<path d="M31.5471 106.231C31.4162 106.559 31.2655 106.878 31.0959 107.188C30.013 109.159 28.1877 110.622 26.0216 111.254C23.8554 111.886 21.5257 111.635 19.5449 110.558C18.5633 110.025 17.6969 109.304 16.9952 108.438C16.2935 107.571 15.7702 106.575 15.4552 105.508C15.1403 104.44 15.0399 103.32 15.1597 102.214C15.2796 101.107 15.6173 100.035 16.1537 99.0584C16.6901 98.0818 17.4145 97.22 18.2857 96.5222C19.1568 95.8244 20.1576 95.3043 21.2308 94.9916C22.304 94.6789 23.4286 94.5797 24.5403 94.6998C25.652 94.8198 26.729 95.1567 27.7099 95.6912C29.5294 96.6815 30.9233 98.2987 31.6298 100.239C32.3363 102.18 32.3069 104.31 31.5471 106.231Z" fill="#A0616A"/>
<path d="M40.2391 87.693C40.0597 87.4977 39.8719 87.3052 39.6785 87.1183C36.564 84.0463 32.6408 81.9125 28.3609 80.9628C24.081 80.0132 19.6187 80.2863 15.488 81.7507C11.3573 83.2152 7.72631 85.8114 5.01344 89.2401C2.30057 92.6689 0.616186 96.7908 0.154353 101.131C-0.30748 105.471 0.47203 109.852 2.40308 113.771C4.33412 117.689 7.33813 120.985 11.069 123.278C14.7998 125.571 19.1057 126.768 23.4905 126.732C27.8752 126.696 32.1605 125.427 35.8525 123.073C37.2313 122.192 38.5137 121.17 39.6785 120.023C39.8692 119.837 40.0569 119.647 40.2391 119.452C44.306 115.155 46.5709 109.475 46.5709 103.572C46.5709 97.6694 44.306 91.9894 40.2391 87.693ZM39.6785 119.29C38.4476 120.559 37.0723 121.682 35.5806 122.635C35.5778 122.637 35.575 122.637 35.5722 122.64C32.0082 124.911 27.8792 126.15 23.6479 126.217C19.4166 126.284 15.2502 125.177 11.6154 123.02C11.6126 123.02 11.6126 123.017 11.6098 123.017C8.82203 121.362 6.42199 119.134 4.57062 116.48C2.71925 113.827 1.45936 110.81 0.875431 107.632C0.291507 104.454 0.397054 101.189 1.185 98.0552C1.97294 94.9213 3.42506 91.9914 5.44396 89.4619C7.46286 86.9324 10.0019 84.8618 12.8907 83.389C15.7795 81.9162 18.9514 81.0752 22.1935 80.9225C25.4357 80.7698 28.6731 81.3088 31.6888 82.5035C34.7045 83.6981 37.4286 85.5208 39.6785 87.8492C39.8719 88.0445 40.057 88.2454 40.2391 88.449C43.9823 92.6043 46.0524 97.9887 46.0524 103.569C46.0524 109.15 43.9823 114.535 40.2391 118.69C40.0597 118.894 39.8719 119.094 39.6785 119.29Z" fill="#3F3D56"/>
<path d="M31.8548 89.7066C31.2914 88.7548 30.4747 87.9765 29.4949 87.4576C28.5151 86.9388 27.4102 86.6995 26.3024 86.7663C25.1396 86.8529 24.0332 87.2794 22.9469 87.7011L17.4238 89.8455C15.9946 90.4003 14.4293 91.08 13.8092 92.4765C13.2336 93.7726 13.663 95.2696 14.0977 96.619L16.1641 103.033C16.4473 101.593 16.7349 100.137 17.3351 98.7962C17.9354 97.4551 18.8847 96.2184 20.1972 95.5482C21.6318 94.8157 23.3228 94.8309 24.9333 94.9081C27.2142 95.0173 29.6942 95.3061 31.3148 96.9074C32.1751 97.8167 32.7584 98.9505 32.9968 100.177C33.2314 101.396 33.3495 102.636 33.3495 103.877C34.2848 102.277 35.0727 100.596 35.7035 98.8544C36.2224 97.5576 36.5181 96.1831 36.5782 94.7885C36.5906 93.3958 36.1944 91.959 35.2613 90.921C34.3282 89.8831 32.8078 89.3227 31.4707 89.7336" fill="#343A40"/>
<path d="M14.4387 59.0989L13.8782 59.0923C13.8848 58.5344 13.901 57.9681 13.9262 57.4095L14.4862 57.4345C14.4613 57.987 14.4453 58.547 14.4387 59.0989Z" fill="#A8A29E"/>
<path d="M14.7325 54.2485L14.1752 54.188C14.2922 53.1216 14.4455 52.046 14.6308 50.9913L15.183 51.0874C14.9998 52.1303 14.8482 53.1939 14.7325 54.2485ZM15.8374 47.9616L15.2926 47.8303C15.5463 46.7884 15.8376 45.7414 16.1586 44.7183L16.6937 44.8845C16.3764 45.8962 16.0883 46.9316 15.8374 47.9616ZM17.7498 41.8656L17.2266 41.6651C17.6137 40.6642 18.0391 39.6625 18.4908 38.688L18.9998 38.9218C18.5532 39.8854 18.1326 40.8758 17.7498 41.8656ZM20.4383 36.0649L19.9456 35.799C20.4588 34.8569 21.0101 33.9185 21.5841 33.0098L22.0587 33.3067C21.491 34.2054 20.9459 35.1333 20.4383 36.0649ZM23.8535 30.6582L23.399 30.3316C24.0297 29.4624 24.697 28.6021 25.3824 27.7749L25.8149 28.1299C25.1371 28.948 24.4772 29.7986 23.8535 30.6582ZM27.9346 25.7319L27.5258 25.3502C28.2623 24.5689 29.0343 23.8007 29.8202 23.0669L30.2037 23.4739C29.4264 24.1996 28.663 24.9593 27.9346 25.7319ZM32.6127 21.365L32.2561 20.9345C33.0871 20.2526 33.9509 19.5888 34.8237 18.9617L35.1519 19.4139C34.2888 20.0343 33.4345 20.6907 32.6127 21.365ZM37.811 17.6292L37.5127 17.1568C38.4245 16.5863 39.3663 16.0383 40.3121 15.5279L40.5793 16.0183C39.6441 16.5231 38.7127 17.065 37.811 17.6292ZM43.4453 14.5887L43.2104 14.082C44.1873 13.6334 45.1917 13.2107 46.1958 12.8256L46.3973 13.3462C45.4045 13.727 44.4113 14.145 43.4453 14.5887ZM49.423 12.2967L49.2557 11.7641C50.2832 11.4444 51.335 11.1539 52.382 10.901L52.5143 11.4431C51.479 11.6934 50.439 11.9805 49.423 12.2967ZM55.6545 10.7905L55.5577 10.241C56.6173 10.0562 57.6978 9.90319 58.7694 9.78632L58.8305 10.341C57.7707 10.4565 56.7022 10.6078 55.6545 10.7905Z" fill="#A8A29E"/>
<path d="M62.0507 10.0939L62.0255 9.53653C62.5871 9.51146 63.1559 9.49538 63.7163 9.48871L63.723 10.0467C63.1687 10.0532 62.606 10.0691 62.0507 10.0939Z" fill="#A8A29E"/>
<path d="M16.509 57.3054L16.1085 56.9146L14.1761 58.8816L12.3458 56.8197L11.9257 57.1899L14.1554 59.7007L16.509 57.3054Z" fill="#A8A29E"/>
<path d="M61.9211 12.1072L61.5284 11.7086L63.5048 9.7853L61.4331 7.96359L61.8051 7.54541L64.3277 9.76466L61.9211 12.1072Z" fill="#A8A29E"/>
<path d="M145.788 15.6106C145.295 15.3521 144.798 15.0982 144.297 14.8486L144.548 14.3498C145.052 14.6008 145.553 14.8565 146.05 15.1168L145.788 15.6106Z" fill="#A8A29E"/>
<path d="M183.882 118.588L183.363 118.376C183.785 117.352 184.19 116.307 184.569 115.27L185.096 115.461C184.715 116.505 184.306 117.557 183.882 118.588ZM186.18 112.287L185.646 112.118C185.982 111.065 186.3 109.99 186.592 108.924L187.133 109.071C186.839 110.144 186.518 111.226 186.18 112.287ZM187.953 105.819L187.406 105.695C187.654 104.617 187.883 103.52 188.086 102.434L188.637 102.536C188.433 103.629 188.202 104.734 187.953 105.819ZM189.185 99.2279L188.63 99.1486C188.788 98.0545 188.925 96.9424 189.037 95.8432L189.595 95.8998C189.481 97.0065 189.344 98.1263 189.185 99.2279ZM189.867 92.5574L189.307 92.5238C189.374 91.4211 189.418 90.3015 189.439 89.196L190 89.2067C189.979 90.3197 189.934 91.447 189.867 92.5574ZM189.995 85.8534L189.434 85.8656C189.424 85.3803 189.408 84.8955 189.389 84.4111C189.364 83.7899 189.331 83.1596 189.292 82.5378L189.851 82.5027C189.891 83.1287 189.924 83.7632 189.949 84.3887C189.969 84.8764 189.984 85.3646 189.995 85.8534ZM189.013 79.2205C188.897 78.1213 188.758 77.0098 188.597 75.917L189.152 75.8362C189.313 76.9367 189.454 78.0557 189.57 79.1626L189.013 79.2205ZM188.047 72.6324C187.842 71.5471 187.611 70.4504 187.362 69.3729L187.908 69.2475C188.159 70.3324 188.391 71.4366 188.598 72.5295L188.047 72.6324ZM186.544 66.1434C186.251 65.0766 185.932 64.0021 185.595 62.9494L186.13 62.7804C186.468 63.8402 186.79 64.9221 187.085 65.9962L186.544 66.1434ZM184.516 59.7965C184.137 58.7574 183.731 57.712 183.309 56.6893L183.828 56.4775C184.253 57.5073 184.661 58.5598 185.043 59.6059L184.516 59.7965ZM181.976 53.6333C181.513 52.6281 181.023 51.6189 180.519 50.6337L181.019 50.3807C181.526 51.3726 182.02 52.3886 182.486 53.4006L181.976 53.6333ZM178.94 47.6955C178.396 46.7316 177.825 45.7654 177.242 44.824L177.719 44.5312C178.306 45.479 178.881 46.4518 179.429 47.4225L178.94 47.6955ZM175.426 42.0238C174.805 41.1067 174.156 40.1901 173.497 39.2997L173.949 38.969C174.612 39.8655 175.265 40.7884 175.891 41.7119L175.426 42.0238ZM171.457 36.6564C170.761 35.7925 170.039 34.932 169.309 34.0988L169.731 33.7322C170.466 34.5712 171.194 35.4376 171.894 36.3074L171.457 36.6564ZM167.056 31.6312C166.291 30.8271 165.5 30.0287 164.703 29.2579L165.094 28.8579C165.896 29.6339 166.693 30.438 167.463 31.2475L167.056 31.6312ZM162.253 26.9829C161.424 26.2446 160.569 25.5136 159.71 24.8103L160.066 24.3795C160.931 25.0877 161.792 25.8238 162.627 26.5672L162.253 26.9829ZM157.079 22.7437C156.195 22.0782 155.283 21.4208 154.369 20.7898L154.688 20.3312C155.609 20.9667 156.527 21.6286 157.417 22.2986L157.079 22.7437ZM151.581 18.9483C150.645 18.3572 149.683 17.7762 148.719 17.2212L149 16.7383C149.97 17.2971 150.939 17.8821 151.881 18.4771L151.581 18.9483Z" fill="#A8A29E"/>
<path d="M181.821 123.188L181.316 122.945C181.56 122.443 181.798 121.94 182.03 121.435L182.539 121.668C182.306 122.176 182.066 122.682 181.821 123.188Z" fill="#A8A29E"/>
<path d="M144.999 17.4898L145.528 17.3043L144.607 14.7106L147.274 13.9853L147.125 13.4469L143.878 14.3307L144.999 17.4898Z" fill="#A8A29E"/>
<path d="M180.251 120.427L180.784 120.253L181.646 122.866L184.203 121.82L184.416 122.336L181.302 123.611L180.251 120.427Z" fill="#A8A29E"/>
</g>
<defs>
<clipPath id="clip0_24_133">
<rect width="190" height="174" fill="white"/>
</clipPath>
</defs>
</svg>
