<svg width="193" height="146" viewBox="0 0 193 146" fill="none" xmlns="http://www.w3.org/2000/svg">
<g clip-path="url(#clip0_24_54)">
<path d="M117.029 43.9958C117.269 44.0068 117.507 43.9441 117.71 43.8164C117.913 43.6886 118.071 43.5019 118.164 43.2816C118.257 43.0612 118.279 42.8179 118.228 42.5845C118.177 42.3511 118.055 42.139 117.878 41.9768C117.849 41.8601 117.828 41.7763 117.798 41.6595C117.809 41.6341 117.819 41.6087 117.83 41.5833C118.909 39.0262 122.567 39.0438 123.637 41.6048C124.587 43.8778 125.796 46.1546 126.094 48.5579C126.225 49.6202 126.17 50.6971 125.931 51.7406C128.162 46.9054 129.32 41.6501 129.327 36.331C129.328 34.9962 129.253 33.6625 129.104 32.336C128.98 31.2485 128.809 30.1688 128.59 29.0969C127.394 23.2805 124.827 17.829 121.099 13.1899C119.295 12.2117 117.836 10.7075 116.918 8.87998C116.586 8.22304 116.351 7.52176 116.221 6.79794C116.425 6.82447 116.988 3.7445 116.835 3.55553C117.119 3.12786 117.626 2.91527 117.936 2.49795C119.477 0.422475 121.599 0.784867 122.707 3.60528C125.075 4.79237 125.098 6.76107 123.645 8.65452C122.721 9.85914 122.594 11.4891 121.783 12.7788C121.867 12.8849 121.953 12.9877 122.037 13.0938C123.562 15.042 124.891 17.1341 126.005 19.3399C125.69 16.8934 126.155 13.946 126.948 12.0461C127.852 9.88137 129.544 8.05822 131.035 6.18679C132.825 3.93893 136.497 4.91994 136.813 7.76946C136.816 7.79706 136.819 7.82464 136.822 7.85221C136.6 7.97631 136.383 8.10805 136.171 8.24741C135.905 8.42427 135.698 8.67696 135.579 8.97237C135.46 9.26779 135.433 9.59216 135.502 9.90297C135.572 10.2138 135.734 10.4965 135.967 10.7142C136.201 10.9319 136.496 11.0743 136.812 11.1228L136.845 11.1278C136.766 11.9207 136.627 12.7064 136.428 13.4783C138.34 20.8266 134.212 23.503 128.316 23.6233C128.186 23.6896 128.059 23.7559 127.929 23.8189C129.049 26.9708 129.751 30.254 130.018 33.5858C130.169 35.5515 130.16 37.5262 129.991 39.4904L130.001 39.4208C130.429 37.2366 131.601 35.2658 133.321 33.8411C135.876 31.7558 139.486 30.9878 142.242 29.3116C143.569 28.5047 145.269 29.5475 145.038 31.0759C145.034 31.1003 145.03 31.1247 145.026 31.1491C144.615 31.3154 144.215 31.5069 143.829 31.7226C143.607 31.8467 143.39 31.9785 143.178 32.1178C142.912 32.2947 142.705 32.5474 142.586 32.8428C142.467 33.1382 142.44 33.4626 142.509 33.7734C142.578 34.0842 142.741 34.367 142.974 34.5846C143.208 34.8023 143.503 34.9447 143.819 34.9932L143.852 34.9982C143.875 35.0015 143.895 35.0048 143.919 35.0081C143.217 36.6737 142.231 38.2068 141.006 39.5402C139.81 45.955 134.674 46.5636 129.181 44.6955H129.177C128.575 47.2981 127.701 49.8313 126.571 52.2545H117.262C117.229 52.1517 117.199 52.0456 117.169 51.9428C118.03 51.9967 118.895 51.9455 119.745 51.7904C119.054 50.9482 118.363 50.0995 117.672 49.2574C117.657 49.2417 117.643 49.2251 117.629 49.2077C117.279 48.7767 116.925 48.349 116.575 47.918L116.575 47.9175C116.556 46.5964 116.708 45.2784 117.029 43.996L117.029 43.9958Z" fill="#F2F2F2"/>
<path d="M146.918 20.3237C145.187 14.0531 159.148 8.67598 162.814 13.7257C163.324 13.0078 165.208 12.5717 166.072 12.7919C166.937 13.0121 167.664 13.5627 168.373 14.0957C169.348 14.84 170.359 15.6108 170.957 16.6811C171.56 17.747 171.653 19.2005 170.842 20.1254C170.199 20.861 168.302 21.3367 167.336 21.5305C166.662 21.667 166.094 21.7771 165.607 21.8564C165.164 21.2224 164.96 20.4536 165.031 19.685C164.702 19.905 164.427 20.1944 164.225 20.5325C164.023 20.8706 163.898 21.249 163.86 21.6406C163.847 21.8036 169.308 41.7693 169.308 41.7693C168.652 42.1403 167.962 42.4486 167.247 42.6898C165.833 40.5422 164.749 38.1965 164.033 35.7307C163.868 37.3795 163.889 39.0415 164.095 40.6858C164.205 41.6078 164.362 42.5236 164.565 43.4298C158.075 44.8216 148.314 44.3635 144.068 38.4439C144.067 38.4194 144.066 38.3949 144.065 38.3703C144.062 38.1367 143.977 37.9114 143.825 37.7332C143.673 37.5549 143.463 37.4347 143.232 37.3932C143 37.3517 142.762 37.3914 142.556 37.5056C142.351 37.6198 142.192 37.8013 142.107 38.0191C142.004 38.2802 141.909 38.5063 141.825 38.6861C140.588 34.2904 142.188 29.2032 146.918 20.3237Z" fill="#343A40"/>
<path d="M135.875 125.452V125.657C135.866 125.589 135.866 125.52 135.875 125.452Z" fill="#343A40"/>
<path d="M142.23 89.9644C142.395 89.92 142.563 89.8876 142.733 89.8674C142.538 89.899 142.37 89.9313 142.23 89.9644Z" fill="#343A40"/>
<path d="M142.083 90.0017C142.128 89.9892 142.177 89.9768 142.231 89.9644C142.181 89.9771 142.134 89.9865 142.083 90.0017Z" fill="#343A40"/>
<path d="M189.036 145.999H165.249C164.909 145.73 164.673 145.353 164.581 144.932C164.488 144.51 164.544 144.07 164.739 143.684C165.389 142.204 164.116 140.85 164.116 140.85C163.683 140.347 163.383 139.746 163.241 139.099C163.098 138.453 163.119 137.782 163.3 137.145C163.931 134.958 161.461 128.785 161.461 128.785C161.461 128.785 160.129 136.756 158.498 145.999H135.874C135.495 145.358 135.296 144.627 135.296 143.884C135.296 143.14 135.495 142.41 135.874 141.768C137.193 139.547 135.874 139.121 135.874 139.121C135.874 139.121 134.556 136.635 135.874 134.831C137.193 133.026 135.874 125.657 135.874 125.657C135.924 125.983 136.3 125.39 136.878 124.148C137.758 122.259 139.104 118.86 140.463 114.915C141.435 112.099 142.415 109.001 143.233 105.972H143.235C143.45 105.176 143.653 104.388 143.845 103.607C144.221 102.074 144.543 100.585 144.787 99.1875C145.318 96.1762 145.493 93.5895 145.086 91.9072C144.748 90.5072 144.008 89.7351 142.733 89.8674C143.416 89.7548 144.418 89.6482 145.652 89.5475C145.875 89.5297 146.105 89.512 146.344 89.4922C155.549 88.8011 175.298 88.4042 175.298 88.4042L181.348 99.1677L189.009 112.802C189.009 112.802 188.8 131.093 189.036 145.999Z" fill="#343A40"/>
<path d="M163.646 41.8824L149.709 38.9449L146.942 44.4795L137.623 49.8401C137.623 49.8401 143.63 74.2438 143.596 77.676C143.509 86.39 129.476 105.924 140.075 104.421C150.675 102.918 152.828 96.6239 156.23 97.6192C159.299 98.5168 163.046 102.51 165.554 99.6541C168.063 96.7982 168.947 100.096 170.533 100.21C171.287 100.264 170.833 96.6038 172.729 100.324C174.626 104.044 184.683 99.0363 181.275 95.6493C175.597 90.0084 174.444 48.4258 174.444 48.4258L168.124 46.4936L163.646 41.8824Z" fill="#A8A29E"/>
<path d="M137.36 130.506C137.92 129.843 138.197 128.988 138.133 128.125C138.068 127.261 137.667 126.457 137.015 125.882C136.881 125.768 136.737 125.664 136.585 125.573L138.916 114.21L133.529 111.006L132.03 126.916C131.699 127.569 131.594 128.314 131.733 129.033C131.873 129.752 132.247 130.405 132.799 130.89C133.116 131.163 133.484 131.371 133.881 131.503C134.279 131.635 134.699 131.688 135.117 131.658C135.535 131.629 135.944 131.518 136.319 131.331C136.694 131.145 137.028 130.887 137.303 130.573C137.322 130.551 137.341 130.529 137.36 130.506Z" fill="#A0616A"/>
<path d="M154.086 70.6092C154.052 70.2439 153.583 70.078 152.933 69.849C152.281 69.6492 151.66 69.3573 151.091 68.9821C149.652 67.9494 150.219 66.8693 151.002 65.3765C151.155 65.0863 151.314 64.7842 151.463 64.4702C151.906 63.5402 151.2 59.7035 149.362 53.0649C148.796 51.0213 148.798 49.5778 148.406 48.6201C148.017 47.6625 147.236 47.1905 145.107 47.0918C142.535 46.9628 140.016 47.8525 138.102 49.566C138.051 49.6114 137.997 49.6608 137.945 49.7081C137.848 49.799 137.752 49.8918 137.659 49.9866C135.89 51.7553 134.877 54.1355 134.833 56.6291L134.823 57.0536L134.384 77.3366L133.15 95.1356L131.449 119.654L132.709 119.715L137.737 119.964L138.347 119.994L139.793 113.963L141.534 106.707L142.174 104.041L144.159 95.7714L145.086 91.9071L145.652 89.5475L145.882 88.5839L147.007 83.9002C147.033 83.8015 149.621 73.658 152.603 71.9618C153.716 71.3299 154.118 70.9626 154.086 70.6092Z" fill="#A8A29E"/>
<path d="M187.554 130.385C186.926 129.785 186.558 128.966 186.528 128.1C186.499 127.235 186.811 126.392 187.397 125.752C187.518 125.623 187.65 125.505 187.791 125.398L184.246 114.349L189.255 110.59L192.465 126.247C192.865 126.862 193.049 127.591 192.989 128.32C192.928 129.05 192.626 129.739 192.13 130.28C191.845 130.585 191.501 130.832 191.12 131.005C190.739 131.179 190.327 131.276 189.908 131.291C189.489 131.307 189.071 131.24 188.678 131.095C188.285 130.95 187.925 130.729 187.618 130.446C187.596 130.426 187.575 130.406 187.554 130.385Z" fill="#A0616A"/>
<path d="M190.005 106.41C190.005 106.41 186.098 92.7515 187.289 91.2728C188.481 89.7942 184.962 89.5054 186.478 86.7516C187.995 83.9977 185.902 83.5371 185.902 83.5371L184.766 77.2055L182.735 61.6533L182.674 61.1908L182.083 56.6661C181.918 55.3738 181.492 54.1278 180.832 53.0026C180.171 51.8774 179.289 50.8961 178.238 50.1175C178.184 50.0767 178.129 50.0374 178.074 49.9982C177.824 49.8194 177.569 49.6537 177.308 49.5012C175.359 48.3586 173.07 47.9266 170.835 48.2795C166.624 48.9312 167.934 50.4916 167.251 54.6721C166.141 61.4694 165.853 65.3581 166.394 66.2368C166.577 66.5326 166.768 66.8157 166.951 67.0874C167.891 68.49 168.571 69.5018 167.251 70.6843C166.726 71.1165 166.141 71.4722 165.514 71.7407C164.894 72.0391 164.445 72.2532 164.451 72.62C164.458 72.9754 164.896 73.2963 166.07 73.8052C167.493 74.4238 169.021 76.7625 170.272 79.1517C171.265 81.0774 172.151 83.056 172.925 85.0784L183.682 115.138L185.436 120.04L186.041 119.945L191.011 119.162L192.258 118.966L190.005 106.41Z" fill="#A8A29E"/>
<path d="M157.766 38.7374C164.046 38.7374 169.137 33.6792 169.137 27.4396C169.137 21.2 164.046 16.1418 157.766 16.1418C151.486 16.1418 146.396 21.2 146.396 27.4396C146.396 33.6792 151.486 38.7374 157.766 38.7374Z" fill="#A0616A"/>
<path d="M140.712 21.2045C138.981 14.934 152.942 9.55687 156.608 14.6066C157.118 13.8886 159.002 13.4526 159.866 13.6728C160.731 13.893 161.458 14.4436 162.167 14.9765C163.142 15.7209 164.153 16.4917 164.751 17.562C165.354 18.6279 165.447 20.0814 164.636 21.0063C163.993 21.7419 162.096 22.2176 161.13 22.4114C160.456 22.5479 159.888 22.658 159.401 22.7373C158.958 22.1033 158.754 21.3345 158.825 20.5659C158.496 20.7859 158.221 21.0753 158.019 21.4134C157.817 21.7515 157.692 22.1299 157.654 22.5215C157.641 22.6845 163.102 42.6502 163.102 42.6502C162.446 43.0212 161.756 43.3295 161.041 43.5707C159.627 41.423 158.543 39.0774 157.827 36.6116C157.663 38.2604 157.683 39.9224 157.889 41.5666C157.999 42.4887 158.156 43.4045 158.359 44.3106C151.869 45.7025 142.108 45.2444 137.862 39.3248C137.861 39.3003 137.86 39.2758 137.859 39.2512C137.856 39.0176 137.771 38.7923 137.619 38.6141C137.467 38.4358 137.257 38.3156 137.026 38.2741C136.794 38.2326 136.556 38.2723 136.35 38.3865C136.145 38.5007 135.986 38.6822 135.901 38.9C135.798 39.1611 135.703 39.3872 135.619 39.567C134.382 35.1713 135.982 30.084 140.712 21.2045Z" fill="#343A40"/>
<path d="M84.3214 60.2434C84.0813 60.2544 83.8436 60.1917 83.6405 60.064C83.4374 59.9362 83.2787 59.7495 83.186 59.5291C83.0932 59.3088 83.0709 59.0654 83.122 58.8321C83.1732 58.5987 83.2952 58.3865 83.4718 58.2244C83.5013 58.1077 83.5225 58.0238 83.5521 57.9071C83.5415 57.8817 83.5309 57.8563 83.5202 57.8309C82.4409 55.2738 78.783 55.2914 77.7129 57.8524C76.763 60.1253 75.5538 62.4022 75.256 64.8055C75.1249 65.8678 75.1802 66.9447 75.4195 67.9882C73.1887 63.153 72.0302 57.8976 72.0228 52.5785C72.0223 51.2438 72.097 49.91 72.2463 48.5836C72.3698 47.4961 72.5411 46.4164 72.7602 45.3445C73.9559 39.5281 76.5231 34.0766 80.251 29.4375C82.0553 28.4593 83.5144 26.9551 84.4318 25.1276C84.7641 24.4706 84.999 23.7693 85.1292 23.0455C84.9256 23.0721 84.3617 19.9921 84.5152 19.8031C84.2316 19.3755 83.7239 19.1629 83.4141 18.7455C81.8735 16.6701 79.7508 17.0325 78.6427 19.8529C76.2755 21.04 76.2526 23.0087 77.7051 24.9021C78.6292 26.1067 78.7561 27.7367 79.567 29.0264C79.4835 29.1325 79.3968 29.2352 79.3134 29.3414C77.7885 31.2896 76.4595 33.3816 75.3454 35.5875C75.6606 33.141 75.1952 30.1936 74.4018 28.2937C73.4987 26.129 71.806 24.3058 70.3153 22.4344C68.5247 20.1865 64.8531 21.1675 64.5376 24.0171C64.5346 24.0446 64.5316 24.0722 64.5287 24.0998C64.7501 24.2239 64.9668 24.3556 65.1789 24.495C65.4453 24.6719 65.6517 24.9245 65.7711 25.22C65.8905 25.5154 65.9173 25.8397 65.848 26.1506C65.7787 26.4614 65.6165 26.7441 65.3827 26.9618C65.1489 27.1795 64.8544 27.3219 64.5378 27.3704L64.5053 27.3753C64.5842 28.1682 64.7236 28.954 64.9224 29.7259C63.0101 37.0742 67.1387 39.7506 73.0338 39.8709C73.1639 39.9372 73.2907 40.0035 73.4209 40.0665C72.3015 43.2184 71.5994 46.5016 71.3321 49.8334C71.1808 51.7991 71.1898 53.7738 71.3588 55.738L71.3488 55.6684C70.9217 53.4842 69.749 51.5133 68.0288 50.0887C65.4739 48.0034 61.8643 47.2354 59.108 45.5592C57.7812 44.7523 56.081 45.7951 56.3126 47.3235C56.3163 47.3479 56.32 47.3723 56.3239 47.3967C56.7347 47.5629 57.1348 47.7545 57.5217 47.9702C57.7431 48.0943 57.9599 48.2261 58.1719 48.3654C58.4383 48.5423 58.6448 48.795 58.7642 49.0904C58.8836 49.3858 58.9104 49.7102 58.8411 50.021C58.7717 50.3318 58.6096 50.6146 58.3758 50.8322C58.142 51.0499 57.8474 51.1923 57.5308 51.2408L57.4983 51.2458C57.475 51.2491 57.455 51.2524 57.4316 51.2557C58.1337 52.9213 59.119 54.4544 60.3445 55.7878C61.5403 62.2025 66.676 62.8112 72.1696 60.9431H72.173C72.7757 63.5457 73.6491 66.0789 74.7789 68.5021H84.0881C84.1215 68.3993 84.1515 68.2932 84.1816 68.1904C83.3199 68.2442 82.4548 68.193 81.6056 68.038C82.2963 67.1958 82.987 66.3471 83.6777 65.505C83.6931 65.4893 83.7076 65.4727 83.7211 65.4553C84.0714 65.0243 84.4251 64.5966 84.7755 64.1656L84.7757 64.1651C84.7943 62.844 84.6418 61.526 84.3217 60.2436L84.3214 60.2434Z" fill="#F2F2F2"/>
<path d="M40.8838 13.7259C40.6725 14.2151 34.1577 14.1627 33.8594 14.5983C31.5589 17.9616 39.8517 32.2714 37.5512 35.6391L37.2307 36.0186C37.9812 35.6749 38.7022 35.2708 39.3863 34.8102C39.4478 33.4318 39.5093 32.049 39.5751 30.6705C40.2642 31.5464 40.8203 32.5178 41.2259 33.5539C41.7615 33.1788 42.2008 32.4833 44.4966 31.1155C45.426 30.101 46.4975 29.2247 47.678 28.5133L40.8838 13.7259Z" fill="#343A40"/>
<path d="M45.6145 41.2897C44.8956 40.8244 44.0753 40.5361 43.2218 40.4488C42.3684 40.3615 41.5062 40.4778 40.707 40.7878C39.9077 41.0979 39.1944 41.5929 38.6263 42.2317C38.0581 42.8705 37.6515 43.6347 37.4401 44.461L27.54 70.0917L10.5229 60.4924C10.4481 59.389 10.0237 58.3375 9.3103 57.4886C8.59694 56.6398 7.63135 56.0372 6.55202 55.7673C5.47268 55.4975 4.33505 55.5742 3.3023 55.9864C2.26955 56.3987 1.39473 57.1254 0.803312 58.0622C0.211892 58.999 -0.0657407 60.0979 0.010232 61.2012C0.0862047 62.3044 0.511881 63.3555 1.22621 64.2035C1.94053 65.0516 2.90681 65.6531 3.98645 65.9217C5.06609 66.1904 6.20362 66.1124 7.23591 65.699C10.8196 69.4994 26.356 85.0808 32.788 78.9928C38.1944 73.8755 45.9965 54.0427 47.8746 47.194C48.1754 46.0989 48.1187 44.9371 47.7125 43.8761C47.3064 42.815 46.5718 41.9094 45.6145 41.2897Z" fill="#FFB6B6"/>
<path d="M27.0248 80.0668L30.149 94.0974L52.9939 96.1505L55.0934 83.9337L27.0248 80.0668Z" fill="#FFB6B6"/>
<path d="M61.9209 116.046C61.9104 116.248 61.8979 116.447 61.8833 116.648C61.6642 119.555 61.4137 122.908 61.1424 126.582C60.7146 132.413 60.2367 139.053 59.7547 145.999H11.8372L21.1303 118.245C21.1303 118.245 24.8827 116.192 22.9723 112.744C21.0619 109.296 24.8208 112.044 24.8558 107.119C24.8908 102.194 28.2591 96.955 28.2591 96.955L28.8121 89.4985L29.1273 89.5047L54.0637 89.9173L54.5186 89.9256L55.2845 96.3268C59.9348 101.825 62.3072 108.875 61.9209 116.046Z" fill="#343A40"/>
<path d="M41.2831 34.4901L52.6541 33.9081L57.9357 42.2002C57.9357 42.2002 67.873 43.851 67.1842 55.4861C66.4954 67.1212 55.0934 77.331 55.0934 77.331L55.5808 75.6707L54.7343 78.074L54.8429 79.4234L55.9976 80.8525L56.1165 82.3305L55.0934 84.6689C55.2264 84.8808 55.2971 85.1255 55.2972 85.3752C55.2974 85.625 55.2271 85.8698 55.0943 86.0818C54.9616 86.2939 54.7716 86.4647 54.5461 86.575C54.3206 86.6853 54.0685 86.7305 53.8184 86.7056L37.3881 85.0695C37.014 84.0471 36.7139 82.8237 35.2145 84.8603L33.6667 84.7113L27.2327 84.0919L26.854 82.7212C26.6388 81.9423 26.6053 81.125 26.7559 80.3313C26.9066 79.5376 27.2375 78.7885 27.7234 78.1411C27.1646 76.4022 27.3109 74.5153 28.1314 72.8822L28.1622 72.8209L28.8454 72.255C28.8454 72.255 21.3703 61.0965 29.9515 52.692L33.3956 46.8744L37.2493 42.2028L41.2831 34.4901Z" fill="#FF6B6B"/>
<path d="M44.1132 29.5952C50.0684 29.5952 54.896 24.7984 54.896 18.8812C54.896 12.9641 50.0684 8.16727 44.1132 8.16727C38.158 8.16727 33.3303 12.9641 33.3303 18.8812C33.3303 24.7984 38.158 29.5952 44.1132 29.5952Z" fill="#FFB6B6"/>
<path d="M52.3028 34.3155C51.4247 33.5865 50.8136 32.5897 50.5643 31.4801C50.3648 32.8274 50.4169 34.1996 50.7179 35.5282C50.134 35.9644 49.5677 36.3788 49.0321 36.7539C48.6265 35.7178 48.0704 34.7464 47.3813 33.8705C47.3155 35.249 47.254 36.6318 47.1926 38.0103C46.5084 38.4708 45.7875 38.8749 45.037 39.2186L45.3574 38.8391C47.6579 35.4715 41.7047 29.2728 44.0052 25.9095C44.6506 24.9673 41.7355 17.521 39.514 17.1851C37.5384 16.8885 37.6218 17.4556 35.7077 17.87C35.5089 17.0463 35.2003 16.2526 34.7901 15.51C34.8993 16.3375 34.8741 17.177 34.7155 17.9965C34.035 18.0226 33.4996 17.5918 32.775 17.4817C28.152 16.7794 28.6218 11.8109 29.9081 10.2361C31.1989 8.66575 35.4838 8.19463 37.4594 7.68423C37.6394 7.50976 38.0477 7.61881 38.2277 7.45304C42.0138 4.01016 47.0776 3.44 51.6344 4.96596C56.494 6.59328 59.5239 9.74287 61.0789 14.5983L61.5249 18.4839C61.9251 19.7333 61.4217 25.5464 61.0789 26.8125C59.7465 31.7339 56.9087 29.2771 52.3028 34.3155Z" fill="#343A40"/>
<path d="M68.0252 85.0755L67.6007 52.225C67.5786 50.8333 67.0066 49.5061 66.0083 48.5297C65.01 47.5533 63.6653 47.006 62.2644 47.006C61.5398 47.006 60.8227 47.1527 60.1569 47.437C59.4911 47.7214 58.8906 48.1375 58.3919 48.6599C57.8932 49.1824 57.5069 49.8003 57.2564 50.476C57.006 51.1517 56.8966 51.871 56.935 52.59L58.4288 86.7002L58.4572 107.465C57.5768 107.836 56.8326 108.467 56.3259 109.273C55.8191 110.079 55.5743 111.02 55.6247 111.969C55.6751 112.918 56.0183 113.828 56.6076 114.577C57.1969 115.325 58.0038 115.875 58.9186 116.152C59.8334 116.429 60.8118 116.419 61.7209 116.124C62.63 115.829 63.4257 115.263 63.9999 114.503C64.574 113.743 64.8988 112.826 64.9302 111.877C64.9615 110.927 64.6978 109.991 64.175 109.195L68.0252 85.0755Z" fill="#FFB6B6"/>
<path d="M123.677 127.576C123.677 127.576 123.02 139.309 122.719 146H100.116C99.6506 139.911 99.494 135.437 99.494 135.437L98.2573 146H75.4105L73.9941 126.437L80.8389 109.578C80.8389 109.578 117.933 107.022 121.374 110.265C124.812 113.505 123.677 127.576 123.677 127.576Z" fill="#343A40"/>
<path d="M103.689 28.8808C110.508 28.8808 116.036 23.3885 116.036 16.6134C116.036 9.83834 110.508 4.34607 103.689 4.34607C96.8707 4.34607 91.3431 9.83834 91.3431 16.6134C91.3431 23.3885 96.8707 28.8808 103.689 28.8808Z" fill="#FFB6B6"/>
<path d="M118.08 12.6273C116.812 13.2018 115.99 17.363 114.994 16.3956C113.997 15.4282 114.063 14.1693 112.72 13.8123C111.634 13.5228 110.467 13.8537 109.477 14.3756C109.3 14.4677 109.129 14.5678 108.962 14.6674C108.851 14.5942 108.742 14.5253 108.624 14.4618C107.739 13.991 106.705 13.8755 105.737 14.1391C106.502 14.3938 107.167 14.8811 107.639 15.5321C107.307 15.7527 106.972 15.9738 106.629 16.1698C103.761 17.8139 99.681 14.2388 96.6628 12.8957C98.5533 16.4207 97.6224 17.8806 95.9809 21.5262L95.9242 21.7338C96.0175 20.8201 93.1719 20.1392 93.3369 21.4254C93.4541 22.3386 94.2495 24.3685 94.6949 25.1748C91.5216 21.529 89.3531 17.0675 89.8107 12.4651C89.9103 11.4983 89.8803 10.4782 90.3821 9.6391C90.8845 8.80429 91.932 8.21847 92.8586 8.53681C92.7801 7.06906 93.1033 5.60761 93.794 4.30783C94.4846 3.00804 95.5168 1.9185 96.7809 1.15504C98.045 0.391586 99.4936 -0.0172532 100.973 -0.0280108C102.452 -0.0387685 103.907 0.34896 105.182 1.09395C106.367 1.78478 107.356 2.76184 108.442 3.60463C109.528 4.44741 110.78 5.18204 112.157 5.25162C113.03 5.29348 113.981 5.08156 114.732 5.53113C115.601 6.05279 115.75 7.14498 115.88 8.19594C115.105 8.2719 114.37 8.57585 113.769 9.06896C114.571 8.98764 115.379 9.15978 116.077 9.56089C116.091 9.56685 116.103 9.574 116.115 9.58224C116.575 11.3191 116.528 11.7042 118.08 12.6273Z" fill="#343A40"/>
<path d="M75.4653 115.513C85.9791 103.285 82.4278 87.7319 78.255 72.0319L79.049 48.8382C79.0879 47.7005 79.4019 46.5888 79.9642 45.5969C80.5266 44.6051 81.3209 43.7623 82.28 43.1397L93.0133 36.1725L97.1909 30.171L108.706 31.3152L115.092 38.0252L122.16 43.3868C123.935 44.733 125.286 46.5554 126.052 48.639C126.819 50.7226 126.971 52.9806 126.488 55.1469L119.724 85.5413C119.724 85.5413 122.553 101.298 120.827 103.038C119.101 104.778 114.653 103.039 118.18 104.993C122.413 107.337 126.262 106.904 124.12 109.033C121.978 111.161 124.689 114.12 124.689 114.12L75.4653 115.513Z" fill="#FF6B6B"/>
<path d="M79.9605 133.284L81.7133 120.877L74.7194 118.893L73.336 132.077C72.7572 132.604 72.3379 133.281 72.1252 134.032C71.9126 134.784 71.915 135.579 72.1323 136.328C72.3495 137.078 72.773 137.753 73.355 138.277C73.937 138.801 74.6546 139.153 75.427 139.294C76.1993 139.434 76.996 139.358 77.7272 139.074C78.4585 138.79 79.0955 138.308 79.5665 137.684C80.0375 137.06 80.3239 136.317 80.3935 135.54C80.4631 134.763 80.3132 133.982 79.9605 133.284Z" fill="#FFB6B6"/>
<path d="M93.2757 38.4092C93.2757 38.4092 73.368 44.8471 72.8933 49.5576C72.4186 54.2681 72.576 57.1518 70.4749 76.0012L70.5856 126.777C70.5856 126.777 83.9325 129.616 82.5637 126.58C81.1949 123.544 81.6725 122.116 81.6725 122.116C81.6725 122.116 84.5341 120.994 83.8178 117.43C83.1015 113.865 86.6937 96.2008 86.6937 96.2008L88.961 64.5207L93.2757 38.4092Z" fill="#FF6B6B"/>
<path d="M117.822 132.627L116.889 120.132L123.999 118.607L124.512 131.852C125.055 132.416 125.429 133.119 125.592 133.883C125.754 134.646 125.7 135.439 125.433 136.173C125.167 136.907 124.7 137.553 124.085 138.038C123.47 138.523 122.731 138.828 121.951 138.918C121.171 139.008 120.381 138.881 119.67 138.55C118.959 138.218 118.355 137.697 117.926 137.043C117.497 136.389 117.26 135.63 117.242 134.85C117.223 134.07 117.424 133.3 117.822 132.627Z" fill="#FFB6B6"/>
<path d="M110.777 37.0902C110.777 37.0902 130.218 44.8072 130.382 49.5385C130.546 54.2698 130.199 57.1371 131.056 76.0827L127.605 126.742C127.605 126.742 114.1 128.709 115.666 125.768C117.231 122.828 116.849 121.372 116.849 121.372C116.849 121.372 114.067 120.066 115.016 116.556C115.965 113.046 113.543 95.1857 113.543 95.1857L113.365 63.4261L110.777 37.0902Z" fill="#FF6B6B"/>
</g>
<defs>
<clipPath id="clip0_24_54">
<rect width="193" height="146" fill="white"/>
</clipPath>
</defs>
</svg>
