<svg width="208" height="122" viewBox="0 0 208 122" fill="none" xmlns="http://www.w3.org/2000/svg">
<rect width="208" height="120" rx="8" fill="#EEF4F9"/>
<path d="M81.8129 60.2557C80.6083 60.2557 79.5685 60.0398 78.6935 59.608C77.8185 59.1761 77.1452 58.5909 76.6737 57.8523C76.2077 57.108 75.9748 56.2784 75.9748 55.3636C75.9748 54.6818 76.1112 54.0767 76.3839 53.5483C76.6566 53.0199 77.0373 52.5341 77.5259 52.0909C78.0146 51.642 78.5827 51.196 79.2305 50.7528L82.614 48.5284C83.0515 48.25 83.3725 47.9574 83.5771 47.6506C83.7816 47.3381 83.8839 47 83.8839 46.6364C83.8839 46.2898 83.7447 45.9687 83.4663 45.6733C83.1879 45.3778 82.793 45.233 82.2816 45.2386C81.9407 45.2386 81.6452 45.3153 81.3952 45.4688C81.1452 45.6165 80.9492 45.8125 80.8072 46.0568C80.6708 46.2955 80.6026 46.5625 80.6026 46.858C80.6026 47.2216 80.7049 47.5909 80.9094 47.9659C81.114 48.3409 81.3867 48.7386 81.7276 49.1591C82.0685 49.5739 82.4407 50.0227 82.8441 50.5057L91.1197 60H87.3356L80.4322 52.3125C79.9776 51.7955 79.5231 51.2557 79.0685 50.6932C78.6197 50.125 78.2447 49.5227 77.9435 48.8864C77.6424 48.2443 77.4918 47.5483 77.4918 46.7983C77.4918 45.9517 77.6879 45.1903 78.0799 44.5142C78.4776 43.8381 79.0344 43.304 79.7504 42.9119C80.4663 42.5142 81.3015 42.3153 82.256 42.3153C83.1879 42.3153 83.9918 42.5057 84.668 42.8864C85.3498 43.2614 85.8725 43.7614 86.2362 44.3864C86.6055 45.0057 86.7901 45.6875 86.7901 46.4318C86.7901 47.2557 86.5856 48.0028 86.1765 48.6733C85.7731 49.3381 85.2049 49.9347 84.4719 50.4631L80.9094 53.0284C80.4265 53.3807 80.0685 53.7415 79.8356 54.1108C79.6083 54.4744 79.4947 54.8239 79.4947 55.1591C79.4947 55.5739 79.5969 55.946 79.8015 56.2756C80.006 56.6051 80.2958 56.8665 80.6708 57.0597C81.0458 57.2472 81.4862 57.3409 81.9918 57.3409C82.6055 57.3409 83.2106 57.2017 83.8072 56.9233C84.4094 56.6392 84.9549 56.2386 85.4435 55.7216C85.9379 55.1989 86.3327 54.5795 86.6282 53.8636C86.9237 53.1477 87.0714 52.3551 87.0714 51.4858H90.0799C90.0799 52.554 89.9634 53.517 89.7305 54.375C89.4975 55.2273 89.1737 55.9716 88.7589 56.608C88.3441 57.2386 87.8697 57.7557 87.3356 58.1591C87.1651 58.267 87.0004 58.3693 86.8413 58.4659C86.6822 58.5625 86.5174 58.6648 86.3469 58.7727C85.6992 59.2955 84.9748 59.6733 84.1737 59.9062C83.3782 60.1392 82.5913 60.2557 81.8129 60.2557ZM98.2553 60V42.5455H110.017V45.5881H101.946V49.7472H109.412V52.7898H101.946V56.9574H110.051V60H98.2553ZM125.087 46.9091L120.51 60H116.419L111.843 46.9091H115.678L118.397 56.2756H118.533L121.243 46.9091H125.087ZM132.489 60.2557C131.142 60.2557 129.983 59.983 129.012 59.4375C128.046 58.8864 127.301 58.108 126.779 57.1023C126.256 56.0909 125.995 54.8949 125.995 53.5142C125.995 52.1676 126.256 50.9858 126.779 49.9688C127.301 48.9517 128.037 48.1591 128.986 47.5909C129.941 47.0227 131.06 46.7386 132.344 46.7386C133.208 46.7386 134.012 46.8778 134.756 47.1562C135.506 47.429 136.159 47.8409 136.716 48.392C137.279 48.9432 137.716 49.6364 138.029 50.4716C138.341 51.3011 138.498 52.2727 138.498 53.3864V54.3835H127.444V52.1335H135.08C135.08 51.6108 134.966 51.1477 134.739 50.7443C134.512 50.3409 134.196 50.0256 133.793 49.7983C133.395 49.5653 132.932 49.4489 132.404 49.4489C131.853 49.4489 131.364 49.5767 130.938 49.8324C130.517 50.0824 130.188 50.4205 129.949 50.8466C129.711 51.267 129.588 51.7358 129.583 52.2528V54.392C129.583 55.0398 129.702 55.5994 129.941 56.071C130.185 56.5426 130.529 56.9062 130.972 57.1619C131.415 57.4176 131.941 57.5455 132.549 57.5455C132.952 57.5455 133.321 57.4886 133.657 57.375C133.992 57.2614 134.279 57.0909 134.517 56.8636C134.756 56.6364 134.938 56.358 135.063 56.0284L138.421 56.25C138.25 57.0568 137.901 57.7614 137.373 58.3636C136.85 58.9602 136.174 59.4261 135.344 59.7614C134.52 60.0909 133.569 60.2557 132.489 60.2557ZM144.498 52.4318V60H140.867V46.9091H144.327V49.2188H144.48C144.77 48.4574 145.256 47.8551 145.938 47.4119C146.62 46.9631 147.446 46.7386 148.418 46.7386C149.327 46.7386 150.12 46.9375 150.796 47.3352C151.472 47.733 151.998 48.3011 152.373 49.0398C152.748 49.7727 152.935 50.6477 152.935 51.6648V60H149.304V52.3125C149.31 51.5114 149.105 50.8864 148.691 50.4375C148.276 49.983 147.705 49.7557 146.978 49.7557C146.489 49.7557 146.057 49.8608 145.682 50.071C145.313 50.2812 145.023 50.5881 144.813 50.9915C144.608 51.3892 144.503 51.8693 144.498 52.4318ZM162.76 46.9091V49.6364H154.876V46.9091H162.76ZM156.666 43.7727H160.297V55.9773C160.297 56.3125 160.348 56.5739 160.45 56.7614C160.552 56.9432 160.694 57.071 160.876 57.1449C161.064 57.2187 161.279 57.2557 161.524 57.2557C161.694 57.2557 161.865 57.2415 162.035 57.2131C162.206 57.179 162.336 57.1534 162.427 57.1364L162.998 59.8381C162.816 59.8949 162.561 59.9602 162.231 60.0341C161.902 60.1136 161.501 60.1619 161.029 60.179C160.154 60.2131 159.387 60.0966 158.728 59.8295C158.075 59.5625 157.566 59.1477 157.203 58.5852C156.839 58.0227 156.66 57.3125 156.666 56.4545V43.7727ZM175.853 50.642L172.529 50.8466C172.472 50.5625 172.35 50.3068 172.162 50.0795C171.975 49.8466 171.728 49.6619 171.421 49.5256C171.12 49.3835 170.759 49.3125 170.338 49.3125C169.776 49.3125 169.301 49.4318 168.915 49.6705C168.529 49.9034 168.336 50.2159 168.336 50.608C168.336 50.9205 168.461 51.1847 168.711 51.4006C168.961 51.6165 169.39 51.7898 169.998 51.9205L172.367 52.3977C173.64 52.6591 174.588 53.0795 175.213 53.6591C175.838 54.2386 176.151 55 176.151 55.9432C176.151 56.8011 175.898 57.554 175.392 58.2017C174.892 58.8494 174.205 59.3551 173.33 59.7188C172.461 60.0767 171.458 60.2557 170.321 60.2557C168.588 60.2557 167.208 59.8949 166.179 59.1733C165.157 58.446 164.557 57.4574 164.381 56.2074L167.952 56.0199C168.06 56.5483 168.321 56.9517 168.736 57.2301C169.151 57.5028 169.682 57.6392 170.33 57.6392C170.966 57.6392 171.478 57.517 171.864 57.2727C172.256 57.0227 172.455 56.7017 172.461 56.3097C172.455 55.9801 172.316 55.7102 172.043 55.5C171.77 55.2841 171.35 55.1193 170.782 55.0057L168.515 54.554C167.236 54.2983 166.284 53.8551 165.659 53.2244C165.04 52.5937 164.73 51.7898 164.73 50.8125C164.73 49.9716 164.958 49.2472 165.412 48.6392C165.873 48.0312 166.517 47.5625 167.347 47.233C168.182 46.9034 169.159 46.7386 170.279 46.7386C171.932 46.7386 173.233 47.0881 174.182 47.7869C175.137 48.4858 175.694 49.4375 175.853 50.642Z" fill="#CED4DA"/>
<path d="M51.2496 19.6562H47.5167C47.4485 19.1733 47.3093 18.7443 47.0991 18.3693C46.8889 17.9886 46.619 17.6648 46.2894 17.3977C45.9599 17.1307 45.5792 16.9261 45.1474 16.7841C44.7212 16.642 44.2582 16.571 43.7582 16.571C42.8548 16.571 42.0678 16.7955 41.3974 17.2443C40.7269 17.6875 40.207 18.3352 39.8377 19.1875C39.4684 20.0341 39.2837 21.0625 39.2837 22.2727C39.2837 23.517 39.4684 24.5625 39.8377 25.4091C40.2127 26.2557 40.7354 26.8949 41.4059 27.3267C42.0763 27.7585 42.8519 27.9744 43.7326 27.9744C44.2269 27.9744 44.6843 27.9091 45.1048 27.7784C45.5309 27.6477 45.9087 27.4574 46.2383 27.2074C46.5678 26.9517 46.8406 26.642 47.0565 26.2784C47.2781 25.9148 47.4315 25.5 47.5167 25.0341L51.2496 25.0511C51.1531 25.8523 50.9116 26.625 50.5252 27.3693C50.1445 28.108 49.6303 28.7699 48.9826 29.3551C48.3406 29.9347 47.5735 30.3949 46.6815 30.7358C45.7951 31.071 44.7923 31.2386 43.6729 31.2386C42.1161 31.2386 40.7241 30.8864 39.4968 30.1818C38.2752 29.4773 37.3093 28.4574 36.5991 27.1222C35.8945 25.7869 35.5423 24.1705 35.5423 22.2727C35.5423 20.3693 35.9002 18.75 36.6161 17.4148C37.332 16.0795 38.3036 15.0625 39.5309 14.3636C40.7582 13.6591 42.1388 13.3068 43.6729 13.3068C44.6843 13.3068 45.6218 13.4489 46.4854 13.733C47.3548 14.017 48.1246 14.4318 48.7951 14.9773C49.4656 15.517 50.011 16.179 50.4315 16.9631C50.8576 17.7472 51.1303 18.6449 51.2496 19.6562ZM59.7425 31.2557C58.4187 31.2557 57.2738 30.9744 56.3079 30.4119C55.3477 29.8437 54.6062 29.054 54.0835 28.0426C53.5607 27.0256 53.2994 25.8466 53.2994 24.5057C53.2994 23.1534 53.5607 21.9716 54.0835 20.9602C54.6062 19.9432 55.3477 19.1534 56.3079 18.5909C57.2738 18.0227 58.4187 17.7386 59.7425 17.7386C61.0664 17.7386 62.2085 18.0227 63.1687 18.5909C64.1346 19.1534 64.8789 19.9432 65.4016 20.9602C65.9244 21.9716 66.1857 23.1534 66.1857 24.5057C66.1857 25.8466 65.9244 27.0256 65.4016 28.0426C64.8789 29.054 64.1346 29.8437 63.1687 30.4119C62.2085 30.9744 61.0664 31.2557 59.7425 31.2557ZM59.7596 28.4432C60.3619 28.4432 60.8647 28.2727 61.2681 27.9318C61.6715 27.5852 61.9755 27.1136 62.18 26.517C62.3903 25.9205 62.4954 25.2415 62.4954 24.4801C62.4954 23.7188 62.3903 23.0398 62.18 22.4432C61.9755 21.8466 61.6715 21.375 61.2681 21.0284C60.8647 20.6818 60.3619 20.5085 59.7596 20.5085C59.1516 20.5085 58.6403 20.6818 58.2255 21.0284C57.8164 21.375 57.5067 21.8466 57.2965 22.4432C57.092 23.0398 56.9897 23.7188 56.9897 24.4801C56.9897 25.2415 57.092 25.9205 57.2965 26.517C57.5067 27.1136 57.8164 27.5852 58.2255 27.9318C58.6403 28.2727 59.1516 28.4432 59.7596 28.4432ZM68.5465 31V17.9091H72.0067V20.2188H72.1602C72.4329 19.4517 72.8874 18.8466 73.5238 18.4034C74.1602 17.9602 74.9215 17.7386 75.8079 17.7386C76.7056 17.7386 77.4698 17.9631 78.1005 18.4119C78.7312 18.8551 79.1516 19.4574 79.3619 20.2188H79.4982C79.7653 19.4688 80.2482 18.8693 80.9471 18.4205C81.6516 17.9659 82.484 17.7386 83.4442 17.7386C84.6658 17.7386 85.6573 18.1278 86.4187 18.9062C87.1857 19.679 87.5692 20.7756 87.5692 22.196V31H83.9471V22.9119C83.9471 22.1847 83.7539 21.6392 83.3675 21.2756C82.9812 20.9119 82.4982 20.7301 81.9187 20.7301C81.2596 20.7301 80.7454 20.9403 80.3761 21.3608C80.0067 21.7756 79.8221 22.3239 79.8221 23.0057V31H76.3022V22.8352C76.3022 22.1932 76.1175 21.6818 75.7482 21.3011C75.3846 20.9205 74.9045 20.7301 74.3079 20.7301C73.9045 20.7301 73.5408 20.8324 73.217 21.0369C72.8988 21.2358 72.646 21.517 72.4585 21.8807C72.271 22.2386 72.1772 22.6591 72.1772 23.142V31H68.5465ZM90.4371 31V17.9091H93.8974V20.2188H94.0508C94.3235 19.4517 94.7781 18.8466 95.4144 18.4034C96.0508 17.9602 96.8121 17.7386 97.6985 17.7386C98.5962 17.7386 99.3604 17.9631 99.9911 18.4119C100.622 18.8551 101.042 19.4574 101.252 20.2188H101.389C101.656 19.4688 102.139 18.8693 102.838 18.4205C103.542 17.9659 104.375 17.7386 105.335 17.7386C106.556 17.7386 107.548 18.1278 108.309 18.9062C109.076 19.679 109.46 20.7756 109.46 22.196V31H105.838V22.9119C105.838 22.1847 105.645 21.6392 105.258 21.2756C104.872 20.9119 104.389 20.7301 103.809 20.7301C103.15 20.7301 102.636 20.9403 102.267 21.3608C101.897 21.7756 101.713 22.3239 101.713 23.0057V31H98.1928V22.8352C98.1928 22.1932 98.0082 21.6818 97.6388 21.3011C97.2752 20.9205 96.7951 20.7301 96.1985 20.7301C95.7951 20.7301 95.4315 20.8324 95.1076 21.0369C94.7894 21.2358 94.5366 21.517 94.3491 21.8807C94.1616 22.2386 94.0678 22.6591 94.0678 23.142V31H90.4371ZM120.723 25.4261V17.9091H124.353V31H120.868V28.6222H120.731C120.436 29.3892 119.944 30.0057 119.257 30.4716C118.575 30.9375 117.743 31.1705 116.76 31.1705C115.885 31.1705 115.115 30.9716 114.45 30.5739C113.785 30.1761 113.265 29.6108 112.89 28.8778C112.521 28.1449 112.333 27.267 112.328 26.2443V17.9091H115.958V25.5966C115.964 26.3693 116.172 26.9801 116.581 27.429C116.99 27.8778 117.538 28.1023 118.225 28.1023C118.663 28.1023 119.072 28.0028 119.453 27.804C119.833 27.5994 120.14 27.2983 120.373 26.9006C120.612 26.5028 120.728 26.0114 120.723 25.4261ZM130.888 23.4318V31H127.257V17.9091H130.718V20.2188H130.871C131.161 19.4574 131.647 18.8551 132.328 18.4119C133.01 17.9631 133.837 17.7386 134.809 17.7386C135.718 17.7386 136.51 17.9375 137.186 18.3352C137.863 18.733 138.388 19.3011 138.763 20.0398C139.138 20.7727 139.326 21.6477 139.326 22.6648V31H135.695V23.3125C135.701 22.5114 135.496 21.8864 135.081 21.4375C134.667 20.983 134.096 20.7557 133.368 20.7557C132.88 20.7557 132.448 20.8608 132.073 21.071C131.703 21.2812 131.414 21.5881 131.203 21.9915C130.999 22.3892 130.894 22.8693 130.888 23.4318ZM142.187 31V17.9091H145.818V31H142.187ZM144.011 16.2216C143.471 16.2216 143.008 16.0426 142.622 15.6847C142.241 15.321 142.051 14.8864 142.051 14.3807C142.051 13.8807 142.241 13.4517 142.622 13.0938C143.008 12.7301 143.471 12.5483 144.011 12.5483C144.551 12.5483 145.011 12.7301 145.392 13.0938C145.778 13.4517 145.971 13.8807 145.971 14.3807C145.971 14.8864 145.778 15.321 145.392 15.6847C145.011 16.0426 144.551 16.2216 144.011 16.2216ZM155.689 17.9091V20.6364H147.806V17.9091H155.689ZM149.596 14.7727H153.226V26.9773C153.226 27.3125 153.277 27.5739 153.38 27.7614C153.482 27.9432 153.624 28.071 153.806 28.1449C153.993 28.2187 154.209 28.2557 154.453 28.2557C154.624 28.2557 154.794 28.2415 154.965 28.2131C155.135 28.179 155.266 28.1534 155.357 28.1364L155.928 30.8381C155.746 30.8949 155.49 30.9602 155.161 31.0341C154.831 31.1136 154.431 31.1619 153.959 31.179C153.084 31.2131 152.317 31.0966 151.658 30.8295C151.005 30.5625 150.496 30.1477 150.132 29.5852C149.769 29.0227 149.59 28.3125 149.596 27.4545V14.7727ZM160.296 35.9091C159.836 35.9091 159.404 35.8722 159 35.7983C158.603 35.7301 158.273 35.642 158.012 35.5341L158.83 32.8239C159.256 32.9545 159.64 33.0256 159.98 33.0369C160.327 33.0483 160.625 32.9688 160.875 32.7983C161.131 32.6278 161.338 32.3381 161.498 31.929L161.711 31.375L157.015 17.9091H160.833L163.543 27.5227H163.679L166.415 17.9091H170.259L165.171 32.4148C164.926 33.1193 164.594 33.733 164.174 34.2557C163.759 34.7841 163.233 35.1903 162.597 35.4744C161.961 35.7642 161.194 35.9091 160.296 35.9091Z" fill="#CED4DA"/>
<path d="M138.466 100.185C138.797 100.55 139.102 100.943 139.376 101.359L181.993 100.243L186.964 90.5162L201.656 96.6307L194.417 114.765C193.832 116.23 192.82 117.453 191.531 118.249C190.242 119.045 188.746 119.372 187.269 119.181L139.12 112.954C137.984 114.493 136.437 115.626 134.686 116.202C132.934 116.777 131.06 116.768 129.313 116.175C127.567 115.582 126.03 114.435 124.907 112.884C123.785 111.333 123.13 109.454 123.03 107.495C122.929 105.536 123.388 103.591 124.346 101.918C125.303 100.246 126.713 98.9248 128.389 98.1313C130.065 97.3378 131.927 97.1093 133.727 97.4761C135.527 97.843 137.18 98.7879 138.466 100.185Z" fill="#FFB7B7"/>
<path d="M199.874 108.864L179.514 100.238L179.601 99.8545C179.688 99.4678 188.354 61.1229 189.504 54.961C190.703 48.5413 195.082 46.7665 195.268 46.6942L195.404 46.6412L203.461 49.2381L207 78.6806L199.874 108.864Z" fill="#E6E6E6"/>
<path d="M127.475 112.613C126.307 113.567 124.951 114.244 123.502 114.599C122.053 114.953 120.547 114.974 119.089 114.662C117.631 114.35 116.257 113.712 115.063 112.792C113.87 111.873 112.887 110.694 112.183 109.34L76.4431 115.246L84.1858 97.5495L116.938 94.6543C119.22 93.5835 121.803 93.4144 124.199 94.1787C126.594 94.9431 128.634 96.588 129.933 98.8016C131.232 101.015 131.699 103.644 131.246 106.189C130.793 108.735 129.451 111.02 127.475 112.613Z" fill="#9F616A"/>
<path d="M85.605 97.4253L98.1591 96.1003L101.638 114.945L85.8409 115.246L85.605 97.4253Z" fill="white"/>
<path d="M97.0574 121.628L32.9646 115.644L0.601918 61.6826L0.502243 61.2056C-0.416205 56.7975 0.226921 52.1897 2.31156 48.2423C4.39621 44.2949 7.77986 41.2779 11.8307 39.7546C15.8816 38.2313 20.3229 38.3058 24.3252 39.9642C28.3276 41.6225 31.6174 44.7515 33.5806 48.7667L52.5783 87.6185L90.9191 93.6948L97.0574 121.628Z" fill="#007BFF"/>
</svg>
