<svg width="190" height="178" viewBox="0 0 190 178" fill="none" xmlns="http://www.w3.org/2000/svg">
<g clip-path="url(#clip0_24_85)">
<path d="M89.5754 1.48543L83.7615 4.66862L12.1321 43.8862L6.31814 47.0694C3.49702 48.6182 1.40331 51.2266 0.496346 54.3224C-0.410617 57.4182 -0.0567652 60.7486 1.48027 63.583L54.821 161.682C56.3643 164.513 58.9638 166.614 62.0489 167.524C65.1341 168.434 68.453 168.079 71.2776 166.537L71.2926 166.529L154.52 120.961L154.535 120.953C157.356 119.404 159.45 116.796 160.357 113.7C161.264 110.604 160.91 107.274 159.373 104.439L106.032 6.34006C104.489 3.50918 101.889 1.40823 98.8041 0.49812C95.719 -0.411987 92.4 -0.0569189 89.5754 1.48543Z" fill="#F2F2F2"/>
<path d="M91.2475 4.56065L84.3613 8.33092L14.8763 46.3745L7.99015 50.1447C5.98116 51.2476 4.49017 53.1051 3.8443 55.3097C3.19842 57.5143 3.45041 59.886 4.54497 61.9044L57.8857 160.004C58.9847 162.02 60.8358 163.516 63.0329 164.164C65.2299 164.812 67.5934 164.559 69.6048 163.461L69.6198 163.453L152.847 117.885L152.862 117.877C154.871 116.774 156.362 114.916 157.008 112.712C157.654 110.507 157.402 108.135 156.307 106.117L102.967 8.01779C101.868 6.00186 100.016 4.50573 97.8195 3.85761C95.6225 3.20949 93.259 3.46233 91.2475 4.56065Z" fill="white"/>
<path d="M92.3956 35.0107L61.3551 52.0057C60.8849 52.2631 60.3319 52.3226 59.818 52.171C59.3041 52.0194 58.8712 51.6691 58.6146 51.1973C58.358 50.7254 58.2988 50.1706 58.4499 49.6549C58.6009 49.1391 58.95 48.7048 59.4203 48.4473L90.4608 31.4524C90.9311 31.1949 91.484 31.1354 91.9979 31.287C92.5119 31.4386 92.9447 31.7889 93.2013 32.2608C93.4579 32.7326 93.5171 33.2875 93.3661 33.8032C93.215 34.3189 92.8659 34.7533 92.3956 35.0107Z" fill="#F2F2F2"/>
<path d="M102.975 37.0111L64.6201 58.0104C64.1499 58.2679 63.597 58.3274 63.083 58.1758C62.5691 58.0242 62.1362 57.6739 61.8796 57.202C61.6231 56.7302 61.5638 56.1753 61.7149 55.6596C61.866 55.1439 62.215 54.7095 62.6853 54.4521L101.04 33.4527C101.273 33.3252 101.528 33.245 101.792 33.2167C102.056 33.1883 102.322 33.2123 102.577 33.2874C102.831 33.3625 103.068 33.4871 103.275 33.6542C103.481 33.8212 103.653 34.0275 103.78 34.2611C103.907 34.4948 103.987 34.7512 104.015 35.0159C104.044 35.2805 104.02 35.5482 103.945 35.8035C103.87 36.0589 103.746 36.297 103.579 36.5042C103.413 36.7113 103.207 36.8836 102.975 37.0111Z" fill="#F2F2F2"/>
<path d="M48.5941 44.9313L19.9764 60.5997C19.7512 60.7231 19.584 60.9312 19.5116 61.1783C19.4392 61.4254 19.4676 61.6912 19.5905 61.9173L31.7765 84.3289C31.8995 84.555 32.1069 84.7228 32.3532 84.7954C32.5994 84.868 32.8643 84.8396 33.0896 84.7163L61.7073 69.0479C61.9325 68.9245 62.0997 68.7164 62.1721 68.4693C62.2445 68.2222 62.2161 67.9564 62.0932 67.7303L49.9071 45.3187C49.7842 45.0927 49.5768 44.9249 49.3305 44.8522C49.0843 44.7796 48.8194 44.808 48.5941 44.9313Z" fill="#F2F2F2"/>
<path d="M107.797 63.4474L65.6946 86.4989C65.4617 86.6264 65.2061 86.7066 64.9424 86.735C64.6787 86.7634 64.412 86.7393 64.1575 86.6643C63.903 86.5892 63.6658 86.4646 63.4593 86.2975C63.2528 86.1304 63.0811 85.9242 62.9541 85.6905C62.827 85.4569 62.7471 85.2004 62.7188 84.9358C62.6906 84.6711 62.7145 84.4035 62.7893 84.1481C62.8641 83.8928 62.9883 83.6547 63.1548 83.4475C63.3213 83.2403 63.5269 83.068 63.7597 82.9406L105.862 59.889C106.333 59.6316 106.886 59.5721 107.399 59.7237C107.913 59.8753 108.346 60.2256 108.603 60.6975C108.859 61.1693 108.919 61.7241 108.768 62.2398C108.617 62.7556 108.267 63.1899 107.797 63.4474Z" fill="#F2F2F2"/>
<path d="M118.376 65.4477L68.9596 92.5037C68.4893 92.7611 67.9364 92.8206 67.4225 92.669C66.9086 92.5174 66.4757 92.1671 66.2191 91.6952C65.9625 91.2234 65.9033 90.6686 66.0544 90.1528C66.2054 89.6371 66.5545 89.2028 67.0247 88.9453L116.441 61.8894C116.911 61.6319 117.464 61.5724 117.978 61.724C118.492 61.8756 118.925 62.2259 119.182 62.6978C119.438 63.1696 119.498 63.7245 119.346 64.2402C119.195 64.7559 118.846 65.1903 118.376 65.4477Z" fill="#F2F2F2"/>
<path d="M49.6599 105.377C54.3924 105.377 58.2289 101.528 58.2289 96.7787C58.2289 92.0298 54.3924 88.18 49.6599 88.18C44.9273 88.18 41.0908 92.0298 41.0908 96.7787C41.0908 101.528 44.9273 105.377 49.6599 105.377Z" fill="#F2F2F2"/>
<path d="M177.871 41.9066H83.027C79.8113 41.9102 76.7283 43.1937 74.4545 45.4754C72.1807 47.7571 70.9016 50.8507 70.898 54.0775V165.829C70.9016 169.056 72.1807 172.15 74.4545 174.431C76.7283 176.713 79.8113 177.996 83.027 178H177.871C181.087 177.996 184.17 176.713 186.444 174.431C188.717 172.15 189.996 169.056 190 165.829V54.0775C189.996 50.8507 188.717 47.7571 186.444 45.4754C184.17 43.1937 181.087 41.9102 177.871 41.9066Z" fill="#A8A29E"/>
<path d="M177.871 45.4103H83.027C80.737 45.4129 78.5416 46.3269 76.9223 47.9517C75.303 49.5766 74.3922 51.7796 74.3896 54.0775V165.829C74.3922 168.127 75.303 170.33 76.9223 171.955C78.5416 173.58 80.737 174.494 83.027 174.496H177.871C180.161 174.494 182.356 173.58 183.976 171.955C185.595 170.33 186.506 168.127 186.508 165.829V54.0775C186.506 51.7796 185.595 49.5766 183.976 47.9518C182.356 46.3269 180.161 45.4129 177.871 45.4103Z" fill="white"/>
<path d="M164.345 72.6922H128.984C128.449 72.6922 127.935 72.4787 127.556 72.0986C127.177 71.7185 126.964 71.2029 126.964 70.6654C126.964 70.1279 127.177 69.6123 127.556 69.2322C127.935 68.8521 128.449 68.6386 128.984 68.6386H164.345C164.61 68.6383 164.873 68.6905 165.118 68.7922C165.364 68.894 165.587 69.0432 165.774 69.2314C165.962 69.4197 166.111 69.6432 166.213 69.8893C166.314 70.1353 166.367 70.399 166.367 70.6654C166.367 70.9318 166.314 71.1955 166.213 71.4415C166.111 71.6876 165.962 71.9111 165.774 72.0994C165.587 72.2876 165.364 72.4368 165.118 72.5386C164.873 72.6403 164.61 72.6925 164.345 72.6922Z" fill="#FF6B6B"/>
<path d="M172.676 79.5326H128.984C128.449 79.5326 127.935 79.3191 127.556 78.939C127.177 78.5589 126.964 78.0434 126.964 77.5058C126.964 76.9683 127.177 76.4528 127.556 76.0727C127.935 75.6926 128.449 75.479 128.984 75.479H172.676C173.212 75.479 173.726 75.6926 174.105 76.0727C174.483 76.4528 174.696 76.9683 174.696 77.5058C174.696 78.0434 174.483 78.5589 174.105 78.939C173.726 79.3191 173.212 79.5326 172.676 79.5326Z" fill="#FF6B6B"/>
<path d="M121.159 60.3488H88.5586C88.302 60.3489 88.0559 60.4512 87.8744 60.6334C87.6929 60.8155 87.5909 61.0625 87.5909 61.32V86.8505C87.5909 87.1081 87.6929 87.355 87.8744 87.5371C88.0559 87.7193 88.302 87.8216 88.5586 87.8217H121.159C121.416 87.8216 121.662 87.7193 121.843 87.5371C122.025 87.355 122.127 87.1081 122.127 86.8505V61.32C122.127 61.0625 122.025 60.8155 121.843 60.6334C121.662 60.4512 121.416 60.3489 121.159 60.3488Z" fill="#A8A29E"/>
<path d="M97.5012 76.0264C97.5146 78.1816 96.7229 80.2638 95.2823 81.8624C93.8568 83.4322 91.7347 84.4732 89.5931 84.0425C87.6212 83.6459 86.0188 81.9164 86.2187 79.8242C86.2518 79.371 86.3831 78.9306 86.6033 78.5335C86.8235 78.1365 87.1273 77.7924 87.4936 77.5253C87.8599 77.2581 88.2799 77.0744 88.7242 76.9868C89.1686 76.8992 89.6266 76.9099 90.0664 77.0182C91.9396 77.506 92.686 80.2151 91.125 81.4868C90.7505 81.7919 90.2123 81.2582 90.5904 80.9503C91.6223 80.1096 91.3035 78.2707 90.058 77.8095C88.6079 77.2725 87.0715 78.4274 86.9672 79.915C86.8436 81.6788 88.1901 83.0071 89.8414 83.3198C91.6278 83.6581 93.3989 82.7407 94.6094 81.4744C95.9966 80.0039 96.7621 78.0512 96.7451 76.0264C96.7485 75.928 96.7898 75.8349 96.8603 75.7665C96.9309 75.6982 97.0251 75.6599 97.1231 75.6599C97.2212 75.6599 97.3154 75.6982 97.3859 75.7665C97.4565 75.8349 97.4978 75.928 97.5012 76.0264Z" fill="#343A40"/>
<path d="M104.884 80.8495C112.334 80.8495 118.373 74.7896 118.373 67.3144C118.373 59.8392 112.334 53.7793 104.884 53.7793C97.4346 53.7793 91.3956 59.8392 91.3956 67.3144C91.3956 74.7896 97.4346 80.8495 104.884 80.8495Z" fill="#FF6B6B"/>
<path d="M104.194 73.0897L104.18 72.5839C105.118 72.5577 105.945 72.4987 106.566 72.0432C106.742 71.9068 106.887 71.7339 106.99 71.5363C107.094 71.3386 107.154 71.121 107.166 70.898C107.177 70.7618 107.156 70.6249 107.106 70.4979C107.056 70.371 106.977 70.2574 106.875 70.166C106.463 69.8165 105.799 69.9296 105.316 70.1521L104.899 70.344L105.699 64.4791L106.198 64.5478L105.518 69.5367C106.175 69.3428 106.784 69.4263 107.201 69.7797C107.361 69.92 107.487 70.0955 107.568 70.2926C107.649 70.4897 107.684 70.703 107.67 70.9158C107.655 71.2153 107.575 71.508 107.436 71.7733C107.296 72.0387 107.101 72.2702 106.863 72.4517C106.065 73.0371 105.028 73.0662 104.194 73.0897Z" fill="#343A40"/>
<path d="M111.382 64.978H108.668V65.4838H111.382V64.978Z" fill="#343A40"/>
<path d="M102.813 64.978H100.099V65.4838H102.813V64.978Z" fill="#343A40"/>
<path d="M97.4125 87.8217C98.4235 87.1779 99.5162 86.6735 100.661 86.322C100.552 85.9322 100.554 85.5196 100.666 85.1308C100.818 84.6396 101.124 84.211 101.539 83.9088C101.954 83.6066 102.455 83.4471 102.967 83.454H106.254C106.767 83.4475 107.269 83.6074 107.684 83.9099C108.1 84.2125 108.407 84.6416 108.56 85.1333C108.672 85.5213 108.674 85.9331 108.565 86.322C109.71 86.674 110.802 87.1784 111.814 87.8217H97.4125Z" fill="#343A40"/>
<path d="M120.335 62.2911C120.089 61.9925 119.787 61.7458 119.445 61.5653C119.146 61.4084 118.813 61.3259 118.475 61.325C118.011 61.3308 117.56 61.483 117.187 61.76C116.161 62.4884 115.45 64.0589 115.45 65.8773C115.45 68.1585 116.569 70.0502 118.024 70.379C118.172 70.4123 118.323 70.4293 118.475 70.4296C120.141 70.4296 121.499 68.3886 121.499 65.8773C121.499 64.4206 121.043 63.1232 120.335 62.2911Z" fill="#3F3D56"/>
<path d="M92.6315 61.6513H92.6291C92.2921 61.4414 91.9041 61.3285 91.5075 61.3251C91.1695 61.326 90.8367 61.4084 90.5371 61.5653C90.1956 61.7458 89.8933 61.9925 89.6475 62.2912L89.6449 62.2937C88.9393 63.1257 88.4831 64.4231 88.4831 65.8773C88.4831 67.8398 89.3097 69.5141 90.4691 70.1539C90.7864 70.3324 91.1437 70.4272 91.5075 70.4296C91.5884 70.4296 91.6692 70.4245 91.7494 70.4144H91.7519C93.3044 70.2272 94.5318 68.2647 94.5318 65.8773C94.5318 63.9654 93.743 62.324 92.6315 61.6513Z" fill="#3F3D56"/>
<path d="M90.6581 69.7187C90.7181 69.7187 90.7772 69.7043 90.8306 69.6768C90.884 69.6492 90.9301 69.6094 90.9651 69.5605C91.0001 69.5115 91.023 69.455 91.0319 69.3954C91.0408 69.3359 91.0355 69.275 91.0164 69.218C90.2938 67.0619 90.0765 64.7677 90.3812 62.5137C90.6859 60.2597 91.5045 58.1065 92.7733 56.2215C94.0422 54.3366 95.7271 52.7706 97.6971 51.6452C99.6671 50.5199 101.869 49.8656 104.132 49.7331C106.395 49.6006 108.658 49.9935 110.745 50.8813C112.832 51.7691 114.687 53.1279 116.166 54.852C117.644 56.5761 118.707 58.6191 119.271 60.8223C119.835 63.0255 119.885 65.3295 119.417 67.5552C119.396 67.6537 119.416 67.7563 119.47 67.8406C119.525 67.9249 119.611 67.9839 119.709 68.0047C119.807 68.0255 119.909 68.0063 119.993 67.9513C120.077 67.8964 120.136 67.8102 120.157 67.7118C120.649 65.3717 120.597 62.9493 120.004 60.6328C119.411 58.3163 118.294 56.1681 116.74 54.3553C115.185 52.5424 113.235 51.1138 111.041 50.1803C108.846 49.2468 106.467 48.8337 104.088 48.9731C101.708 49.1124 99.393 49.8005 97.3218 50.9838C95.2506 52.1671 93.4792 53.8138 92.1453 55.7958C90.8115 57.7778 89.9511 60.0417 89.631 62.4117C89.3109 64.7816 89.5398 67.1938 90.2999 69.4605C90.3252 69.5357 90.3734 69.6011 90.4376 69.6474C90.5019 69.6937 90.579 69.7187 90.6581 69.7187Z" fill="#3F3D56"/>
<path d="M111.66 58.5448C112.194 59.2764 111.931 60.2623 111.368 60.8931C110.636 61.7139 109.468 61.7657 108.454 61.6133C107.316 61.4424 106.11 60.9075 104.958 61.268C103.976 61.5752 103.276 62.4687 102.256 62.6932C101.351 62.8922 100.27 62.6287 99.9524 61.6613C99.8001 61.1964 100.53 60.9971 100.682 61.4596C100.887 62.0855 101.772 62.073 102.28 61.8997C103.093 61.6218 103.72 60.9459 104.519 60.6231C105.462 60.2425 106.484 60.4144 107.444 60.6312C108.348 60.8355 109.389 61.1385 110.29 60.7568C110.956 60.4743 111.487 59.5846 111.007 58.9278C110.719 58.5335 111.375 58.1545 111.66 58.5448Z" fill="#343A40"/>
<path d="M164.291 105.057H116.329C116.064 105.057 115.802 105.005 115.557 104.903C115.312 104.801 115.089 104.652 114.901 104.464C114.714 104.275 114.565 104.052 114.463 103.806C114.362 103.56 114.31 103.297 114.31 103.03C114.31 102.764 114.362 102.501 114.463 102.255C114.565 102.009 114.714 101.785 114.901 101.597C115.089 101.409 115.312 101.26 115.557 101.158C115.802 101.056 116.064 101.004 116.329 101.004H164.291C164.827 101.004 165.34 101.218 165.718 101.598C166.097 101.978 166.309 102.493 166.309 103.03C166.309 103.568 166.097 104.083 165.718 104.463C165.34 104.843 164.827 105.057 164.291 105.057Z" fill="#A8A29E"/>
<path d="M172.623 111.898H116.329C116.064 111.898 115.801 111.846 115.556 111.744C115.311 111.642 115.088 111.493 114.9 111.305C114.712 111.117 114.563 110.893 114.461 110.647C114.36 110.401 114.307 110.137 114.307 109.871C114.307 109.604 114.36 109.341 114.461 109.095C114.563 108.849 114.712 108.625 114.9 108.437C115.088 108.249 115.311 108.099 115.556 107.998C115.801 107.896 116.064 107.844 116.329 107.844H172.623C172.889 107.844 173.152 107.896 173.397 107.998C173.642 108.099 173.865 108.249 174.053 108.437C174.241 108.625 174.39 108.849 174.491 109.095C174.593 109.341 174.645 109.604 174.645 109.871C174.645 110.137 174.593 110.401 174.491 110.647C174.39 110.893 174.241 111.117 174.053 111.305C173.865 111.493 173.642 111.642 173.397 111.744C173.152 111.846 172.889 111.898 172.623 111.898Z" fill="#A8A29E"/>
<path d="M164.291 129.643H116.329C115.794 129.643 115.28 129.429 114.901 129.049C114.522 128.669 114.31 128.153 114.31 127.616C114.31 127.078 114.522 126.563 114.901 126.183C115.28 125.803 115.794 125.589 116.329 125.589H164.291C164.827 125.589 165.341 125.803 165.72 126.183C166.098 126.563 166.311 127.078 166.311 127.616C166.311 128.153 166.098 128.669 165.72 129.049C165.341 129.429 164.827 129.643 164.291 129.643Z" fill="#A8A29E"/>
<path d="M172.623 136.483H116.329C115.794 136.483 115.28 136.27 114.901 135.889C114.522 135.509 114.31 134.994 114.31 134.456C114.31 133.919 114.522 133.403 114.901 133.023C115.28 132.643 115.794 132.43 116.329 132.43H172.623C173.159 132.43 173.673 132.643 174.051 133.023C174.43 133.403 174.643 133.919 174.643 134.456C174.643 134.994 174.43 135.509 174.051 135.889C173.673 136.27 173.159 136.483 172.623 136.483Z" fill="#A8A29E"/>
<path d="M97.347 114.973C102.08 114.973 105.916 111.123 105.916 106.375C105.916 101.626 102.08 97.7758 97.347 97.7758C92.6145 97.7758 88.778 101.626 88.778 106.375C88.778 111.123 92.6145 114.973 97.347 114.973Z" fill="#A8A29E"/>
<path d="M97.347 139.758C102.08 139.758 105.916 135.908 105.916 131.159C105.916 126.41 102.08 122.56 97.347 122.56C92.6145 122.56 88.778 126.41 88.778 131.159C88.778 135.908 92.6145 139.758 97.347 139.758Z" fill="#A8A29E"/>
<path d="M164.291 154.427H116.329C115.794 154.427 115.28 154.214 114.901 153.834C114.522 153.453 114.31 152.938 114.31 152.4C114.31 151.863 114.522 151.347 114.901 150.967C115.28 150.587 115.794 150.374 116.329 150.374H164.291C164.827 150.374 165.341 150.587 165.72 150.967C166.098 151.347 166.311 151.863 166.311 152.4C166.311 152.938 166.098 153.453 165.72 153.834C165.341 154.214 164.827 154.427 164.291 154.427Z" fill="#A8A29E"/>
<path d="M172.623 161.268H116.329C115.794 161.268 115.28 161.054 114.901 160.674C114.522 160.294 114.31 159.778 114.31 159.241C114.31 158.703 114.522 158.188 114.901 157.808C115.28 157.428 115.794 157.214 116.329 157.214H172.623C173.159 157.214 173.673 157.428 174.051 157.808C174.43 158.188 174.643 158.703 174.643 159.241C174.643 159.778 174.43 160.294 174.051 160.674C173.673 161.054 173.159 161.268 172.623 161.268Z" fill="#A8A29E"/>
<path d="M97.347 164.542C102.08 164.542 105.916 160.692 105.916 155.943C105.916 151.194 102.08 147.345 97.347 147.345C92.6145 147.345 88.778 151.194 88.778 155.943C88.778 160.692 92.6145 164.542 97.347 164.542Z" fill="#A8A29E"/>
</g>
<defs>
<clipPath id="clip0_24_85">
<rect width="190" height="178" fill="white"/>
</clipPath>
</defs>
</svg>
