<svg width="211" height="148" viewBox="0 0 211 148" fill="none" xmlns="http://www.w3.org/2000/svg">
<rect x="3" y="18" width="208" height="120" rx="8" fill="#EEF4F9"/>
<path d="M116.207 116.344C116.128 115.599 115.793 115.02 115.202 114.605C114.616 114.19 113.855 113.983 112.918 113.983C112.259 113.983 111.693 114.082 111.222 114.281C110.75 114.48 110.389 114.75 110.139 115.091C109.889 115.432 109.761 115.821 109.756 116.259C109.756 116.622 109.838 116.937 110.003 117.205C110.173 117.472 110.403 117.699 110.693 117.886C110.983 118.068 111.304 118.222 111.656 118.347C112.009 118.472 112.364 118.577 112.722 118.662L114.358 119.071C115.017 119.224 115.651 119.432 116.259 119.693C116.872 119.955 117.42 120.284 117.903 120.682C118.392 121.08 118.778 121.56 119.062 122.122C119.347 122.685 119.489 123.344 119.489 124.099C119.489 125.122 119.227 126.023 118.705 126.801C118.182 127.574 117.426 128.179 116.438 128.616C115.455 129.048 114.264 129.264 112.866 129.264C111.509 129.264 110.33 129.054 109.33 128.634C108.335 128.213 107.557 127.599 106.994 126.793C106.438 125.986 106.136 125.003 106.091 123.844H109.202C109.247 124.452 109.435 124.957 109.764 125.361C110.094 125.764 110.523 126.065 111.051 126.264C111.585 126.463 112.182 126.562 112.841 126.562C113.528 126.562 114.131 126.46 114.648 126.256C115.17 126.045 115.58 125.756 115.875 125.386C116.17 125.011 116.321 124.574 116.327 124.074C116.321 123.619 116.188 123.244 115.926 122.949C115.665 122.648 115.298 122.398 114.827 122.199C114.361 121.994 113.815 121.812 113.19 121.653L111.205 121.142C109.767 120.773 108.631 120.213 107.795 119.463C106.966 118.707 106.551 117.705 106.551 116.455C106.551 115.426 106.83 114.526 107.386 113.753C107.949 112.98 108.713 112.381 109.679 111.955C110.645 111.523 111.739 111.307 112.96 111.307C114.199 111.307 115.284 111.523 116.216 111.955C117.153 112.381 117.889 112.974 118.423 113.736C118.957 114.491 119.233 115.361 119.25 116.344H116.207ZM127.967 129.256C126.654 129.256 125.521 128.983 124.566 128.438C123.617 127.886 122.887 127.108 122.376 126.102C121.864 125.091 121.609 123.901 121.609 122.531C121.609 121.185 121.864 120.003 122.376 118.986C122.893 117.963 123.614 117.168 124.54 116.599C125.467 116.026 126.555 115.739 127.805 115.739C128.612 115.739 129.373 115.869 130.089 116.131C130.81 116.386 131.447 116.784 131.998 117.324C132.555 117.864 132.992 118.551 133.31 119.386C133.629 120.216 133.788 121.205 133.788 122.352V123.298H123.058V121.219H130.83C130.825 120.628 130.697 120.102 130.447 119.642C130.197 119.176 129.847 118.81 129.398 118.543C128.955 118.276 128.438 118.142 127.847 118.142C127.217 118.142 126.663 118.295 126.185 118.602C125.708 118.903 125.336 119.301 125.069 119.795C124.808 120.284 124.674 120.821 124.668 121.406V123.222C124.668 123.983 124.808 124.636 125.086 125.182C125.364 125.722 125.754 126.136 126.254 126.426C126.754 126.71 127.339 126.852 128.009 126.852C128.458 126.852 128.864 126.79 129.228 126.665C129.592 126.534 129.907 126.344 130.174 126.094C130.441 125.844 130.643 125.534 130.779 125.165L133.66 125.489C133.478 126.25 133.131 126.915 132.62 127.483C132.114 128.045 131.467 128.483 130.677 128.795C129.887 129.102 128.984 129.256 127.967 129.256ZM136.398 129V115.909H139.389V118.091H139.526C139.764 117.335 140.173 116.753 140.753 116.344C141.338 115.929 142.006 115.722 142.756 115.722C142.926 115.722 143.116 115.73 143.327 115.747C143.543 115.759 143.722 115.778 143.864 115.807V118.645C143.733 118.599 143.526 118.56 143.241 118.526C142.963 118.486 142.693 118.466 142.432 118.466C141.869 118.466 141.364 118.588 140.915 118.832C140.472 119.071 140.122 119.403 139.866 119.83C139.611 120.256 139.483 120.747 139.483 121.304V129H136.398ZM158.005 115.909L153.343 129H149.934L145.272 115.909H148.562L151.57 125.634H151.707L154.724 115.909H158.005ZM160.14 129V115.909H163.225V129H160.14ZM161.691 114.051C161.202 114.051 160.782 113.889 160.43 113.565C160.077 113.236 159.901 112.841 159.901 112.381C159.901 111.915 160.077 111.52 160.43 111.196C160.782 110.866 161.202 110.702 161.691 110.702C162.185 110.702 162.606 110.866 162.952 111.196C163.305 111.52 163.481 111.915 163.481 112.381C163.481 112.841 163.305 113.236 162.952 113.565C162.606 113.889 162.185 114.051 161.691 114.051ZM172.108 129.256C170.801 129.256 169.679 128.969 168.741 128.395C167.81 127.821 167.091 127.028 166.585 126.017C166.085 125 165.835 123.83 165.835 122.506C165.835 121.176 166.091 120.003 166.602 118.986C167.114 117.963 167.835 117.168 168.767 116.599C169.705 116.026 170.813 115.739 172.091 115.739C173.153 115.739 174.094 115.935 174.912 116.327C175.736 116.713 176.392 117.261 176.881 117.972C177.369 118.676 177.648 119.5 177.716 120.443H174.767C174.648 119.812 174.364 119.287 173.915 118.866C173.472 118.44 172.878 118.227 172.134 118.227C171.503 118.227 170.949 118.398 170.472 118.739C169.994 119.074 169.622 119.557 169.355 120.188C169.094 120.818 168.963 121.574 168.963 122.455C168.963 123.347 169.094 124.114 169.355 124.756C169.616 125.392 169.983 125.884 170.455 126.23C170.932 126.571 171.491 126.741 172.134 126.741C172.588 126.741 172.994 126.656 173.352 126.486C173.716 126.31 174.02 126.057 174.264 125.727C174.509 125.398 174.676 124.997 174.767 124.526H177.716C177.642 125.452 177.369 126.273 176.898 126.989C176.426 127.699 175.784 128.256 174.972 128.659C174.159 129.057 173.205 129.256 172.108 129.256ZM186.045 129.256C184.732 129.256 183.599 128.983 182.644 128.438C181.695 127.886 180.965 127.108 180.454 126.102C179.942 125.091 179.687 123.901 179.687 122.531C179.687 121.185 179.942 120.003 180.454 118.986C180.971 117.963 181.692 117.168 182.619 116.599C183.545 116.026 184.633 115.739 185.883 115.739C186.69 115.739 187.451 115.869 188.167 116.131C188.888 116.386 189.525 116.784 190.076 117.324C190.633 117.864 191.07 118.551 191.388 119.386C191.707 120.216 191.866 121.205 191.866 122.352V123.298H181.136V121.219H188.908C188.903 120.628 188.775 120.102 188.525 119.642C188.275 119.176 187.925 118.81 187.477 118.543C187.033 118.276 186.516 118.142 185.925 118.142C185.295 118.142 184.741 118.295 184.263 118.602C183.786 118.903 183.414 119.301 183.147 119.795C182.886 120.284 182.752 120.821 182.746 121.406V123.222C182.746 123.983 182.886 124.636 183.164 125.182C183.442 125.722 183.832 126.136 184.332 126.426C184.832 126.71 185.417 126.852 186.087 126.852C186.536 126.852 186.942 126.79 187.306 126.665C187.67 126.534 187.985 126.344 188.252 126.094C188.519 125.844 188.721 125.534 188.857 125.165L191.738 125.489C191.556 126.25 191.21 126.915 190.698 127.483C190.192 128.045 189.545 128.483 188.755 128.795C187.965 129.102 187.062 129.256 186.045 129.256ZM204.822 119.369L202.01 119.676C201.93 119.392 201.791 119.125 201.592 118.875C201.399 118.625 201.138 118.423 200.808 118.27C200.479 118.116 200.075 118.04 199.598 118.04C198.956 118.04 198.416 118.179 197.979 118.457C197.547 118.736 197.334 119.097 197.339 119.54C197.334 119.92 197.473 120.23 197.757 120.469C198.047 120.707 198.524 120.903 199.189 121.057L201.422 121.534C202.661 121.801 203.581 122.224 204.183 122.804C204.791 123.384 205.098 124.142 205.104 125.08C205.098 125.903 204.857 126.631 204.379 127.261C203.908 127.886 203.251 128.375 202.411 128.727C201.57 129.08 200.604 129.256 199.513 129.256C197.911 129.256 196.621 128.92 195.643 128.25C194.666 127.574 194.084 126.634 193.896 125.429L196.905 125.139C197.041 125.73 197.331 126.176 197.774 126.477C198.217 126.778 198.794 126.929 199.504 126.929C200.237 126.929 200.825 126.778 201.268 126.477C201.717 126.176 201.942 125.804 201.942 125.361C201.942 124.986 201.797 124.676 201.507 124.432C201.223 124.187 200.78 124 200.178 123.869L197.945 123.401C196.689 123.139 195.76 122.699 195.158 122.08C194.555 121.455 194.257 120.665 194.263 119.71C194.257 118.903 194.476 118.205 194.919 117.614C195.368 117.017 195.99 116.557 196.786 116.233C197.587 115.903 198.51 115.739 199.555 115.739C201.089 115.739 202.297 116.065 203.178 116.719C204.064 117.372 204.612 118.256 204.822 119.369Z" fill="#CED4DA"/>
<path d="M107.722 105V87.5455H110.884V102.349H118.571V105H107.722ZM126.889 105.256C125.611 105.256 124.503 104.974 123.565 104.412C122.628 103.849 121.901 103.062 121.384 102.051C120.872 101.04 120.616 99.858 120.616 98.5057C120.616 97.1534 120.872 95.9687 121.384 94.9517C121.901 93.9347 122.628 93.1449 123.565 92.5824C124.503 92.0199 125.611 91.7386 126.889 91.7386C128.168 91.7386 129.276 92.0199 130.213 92.5824C131.151 93.1449 131.875 93.9347 132.386 94.9517C132.903 95.9687 133.162 97.1534 133.162 98.5057C133.162 99.858 132.903 101.04 132.386 102.051C131.875 103.062 131.151 103.849 130.213 104.412C129.276 104.974 128.168 105.256 126.889 105.256ZM126.906 102.784C127.599 102.784 128.179 102.594 128.645 102.213C129.111 101.827 129.457 101.31 129.685 100.662C129.918 100.014 130.034 99.2926 130.034 98.4972C130.034 97.696 129.918 96.9716 129.685 96.3239C129.457 95.6705 129.111 95.1506 128.645 94.7642C128.179 94.3778 127.599 94.1847 126.906 94.1847C126.196 94.1847 125.605 94.3778 125.134 94.7642C124.668 95.1506 124.318 95.6705 124.085 96.3239C123.858 96.9716 123.744 97.696 123.744 98.4972C123.744 99.2926 123.858 100.014 124.085 100.662C124.318 101.31 124.668 101.827 125.134 102.213C125.605 102.594 126.196 102.784 126.906 102.784ZM141.491 105.256C140.184 105.256 139.062 104.969 138.124 104.395C137.192 103.821 136.474 103.028 135.968 102.017C135.468 101 135.218 99.8295 135.218 98.5057C135.218 97.1761 135.474 96.0028 135.985 94.9858C136.496 93.9631 137.218 93.1676 138.15 92.5994C139.087 92.0256 140.195 91.7386 141.474 91.7386C142.536 91.7386 143.477 91.9347 144.295 92.3267C145.119 92.7131 145.775 93.2614 146.263 93.9716C146.752 94.6761 147.031 95.5 147.099 96.4432H144.15C144.031 95.8125 143.746 95.2869 143.298 94.8665C142.854 94.4403 142.261 94.2273 141.516 94.2273C140.886 94.2273 140.332 94.3977 139.854 94.7386C139.377 95.0739 139.005 95.5568 138.738 96.1875C138.477 96.8182 138.346 97.5739 138.346 98.4545C138.346 99.3466 138.477 100.114 138.738 100.756C138.999 101.392 139.366 101.884 139.837 102.23C140.315 102.571 140.874 102.741 141.516 102.741C141.971 102.741 142.377 102.656 142.735 102.486C143.099 102.31 143.403 102.057 143.647 101.727C143.891 101.398 144.059 100.997 144.15 100.526H147.099C147.025 101.452 146.752 102.273 146.281 102.989C145.809 103.699 145.167 104.256 144.354 104.659C143.542 105.057 142.587 105.256 141.491 105.256ZM153.399 105.264C152.57 105.264 151.822 105.116 151.158 104.821C150.499 104.52 149.976 104.077 149.589 103.491C149.209 102.906 149.018 102.185 149.018 101.327C149.018 100.588 149.155 99.9773 149.428 99.4943C149.7 99.0114 150.072 98.625 150.544 98.3352C151.016 98.0455 151.547 97.8267 152.138 97.679C152.734 97.5256 153.351 97.4148 153.987 97.3466C154.754 97.267 155.376 97.196 155.854 97.1335C156.331 97.0653 156.678 96.9631 156.893 96.8267C157.115 96.6847 157.226 96.4659 157.226 96.1705V96.1193C157.226 95.4773 157.036 94.9801 156.655 94.6278C156.274 94.2756 155.726 94.0994 155.01 94.0994C154.254 94.0994 153.655 94.2642 153.212 94.5938C152.774 94.9233 152.479 95.3125 152.325 95.7614L149.445 95.3523C149.672 94.5568 150.047 93.892 150.57 93.358C151.092 92.8182 151.732 92.4148 152.487 92.1477C153.243 91.875 154.078 91.7386 154.993 91.7386C155.624 91.7386 156.251 91.8125 156.876 91.9602C157.501 92.108 158.072 92.3523 158.589 92.6932C159.107 93.0284 159.521 93.4858 159.834 94.0653C160.152 94.6449 160.311 95.3693 160.311 96.2386V105H157.345V103.202H157.243C157.055 103.565 156.791 103.906 156.45 104.224C156.115 104.537 155.692 104.79 155.18 104.983C154.675 105.17 154.081 105.264 153.399 105.264ZM154.2 102.997C154.82 102.997 155.357 102.875 155.811 102.631C156.266 102.381 156.615 102.051 156.859 101.642C157.109 101.233 157.234 100.787 157.234 100.304V98.7614C157.138 98.8409 156.973 98.9148 156.74 98.983C156.513 99.0511 156.257 99.1108 155.973 99.1619C155.689 99.2131 155.408 99.2585 155.129 99.2983C154.851 99.3381 154.609 99.3722 154.405 99.4006C153.945 99.4631 153.533 99.5653 153.169 99.7074C152.805 99.8494 152.518 100.048 152.308 100.304C152.098 100.554 151.993 100.878 151.993 101.276C151.993 101.844 152.2 102.273 152.615 102.562C153.03 102.852 153.558 102.997 154.2 102.997ZM166.499 87.5455V105H163.413V87.5455H166.499Z" fill="#CED4DA"/>
<path d="M81.5057 101.268C81.1109 101.662 80.6347 101.964 80.1105 102.153C79.5864 102.343 79.0271 102.415 78.472 102.365C77.9168 102.315 77.3794 102.144 76.8975 101.864C76.4156 101.584 76.0009 101.202 75.6827 100.745L62.6364 104.403L64.7814 97.6968L76.8414 95.2508C77.6458 94.7671 78.5997 94.5953 79.5223 94.768C80.4449 94.9406 81.2721 95.4458 81.847 96.1877C82.422 96.9296 82.7048 97.8566 82.6419 98.7931C82.5789 99.7296 82.1746 100.61 81.5055 101.269L81.5057 101.268Z" fill="#FFB7B7"/>
<path d="M76.5376 101.568L73.6462 94.9296L73.5291 94.94L51.258 96.9578L28.7193 94.6955L23.8784 103.481L26.2211 105.372L26.275 105.375L54.7892 106.612L54.8105 106.607L76.5376 101.568Z" fill="#E6E6E6"/>
<path d="M9.46371 138.775C14.6904 139.171 19.2575 135.13 19.6647 129.749C20.0718 124.369 16.1648 119.687 10.9382 119.291C5.71148 118.896 1.14436 122.937 0.737203 128.317C0.330046 133.697 4.23704 138.38 9.46371 138.775Z" fill="#007BFF"/>
<path d="M8.2089 129.331C7.94532 128.84 7.79255 128.298 7.76135 127.741C7.73014 127.185 7.82126 126.628 8.02828 126.111C8.23531 125.593 8.55321 125.128 8.95962 124.746C9.36603 124.365 9.85108 124.077 10.3806 123.904L10.6169 110.356L16.428 114.335L15.3099 126.588C15.5429 127.498 15.4342 128.461 15.0043 129.295C14.5744 130.13 13.8532 130.778 12.9775 131.116C12.1018 131.454 11.1324 131.459 10.2532 131.13C9.37392 130.801 8.64595 130.161 8.20725 129.331L8.2089 129.331Z" fill="#FFB7B7"/>
<path d="M8.75482 117.187L15.9926 117.392L23.6685 96.2629L35.2941 76.822L29.3952 68.705L26.6878 70.0223L26.6646 70.0706L13.4292 95.3573L13.4247 95.379L8.75482 117.187Z" fill="#E6E6E6"/>
<path d="M118.002 78.506C101.434 94.5161 55.2479 94.3139 22.9613 123.56C15.2411 92.3452 33.4213 40.846 49.0918 21.8679C56.6171 12.7543 67.4642 6.99761 79.2469 5.86417C91.0296 4.73072 102.783 8.31341 111.921 15.8241C130.95 31.4643 135.705 61.3986 118.002 78.506Z" fill="#007BFF"/>
<path d="M82.1132 59.1715C90.107 59.7764 97.0776 53.7866 97.6825 45.7929C98.2874 37.7991 92.2976 30.8285 84.3038 30.2236C76.3101 29.6187 69.3395 35.6085 68.7346 43.6023C68.1297 51.596 74.1195 58.5666 82.1132 59.1715Z" fill="white"/>
<path opacity="0.2" d="M96.535 38.9875C98.0681 42.0505 98.4374 45.5428 97.5766 48.8392C96.7159 52.1356 94.6814 55.0209 91.8373 56.9789C88.9931 58.9368 85.525 59.8395 82.0537 59.5253C78.5823 59.2112 75.3343 57.7007 72.891 55.2643C73.8252 57.1345 75.1636 58.7854 76.8135 60.1027C78.4634 61.42 80.3854 62.3722 82.4464 62.8933C84.5074 63.4145 86.6582 63.4922 88.7497 63.121C90.8412 62.7498 92.8235 61.9386 94.5594 60.7436C96.2953 59.5486 97.7432 57.9984 98.803 56.2002C99.8627 54.402 100.509 52.3989 100.697 50.3296C100.885 48.2603 100.61 46.1742 99.8912 44.2157C99.1726 42.2573 98.0275 40.4734 96.535 38.9875Z" fill="#231F20"/>
<path opacity="0.2" d="M115.792 20.2892C126.555 36.5975 126.937 58.8938 112.594 72.7721C96.5683 88.2783 52.8671 88.6205 20.7758 115.068C21.0473 118.1 21.5429 121.108 22.2586 124.067C54.5821 94.7495 100.817 94.9477 117.404 78.8987C133.645 63.1834 131.005 36.6749 115.792 20.2892Z" fill="#231F20"/>
</svg>
