<svg width="67" height="44" viewBox="0 0 67 44" fill="none" xmlns="http://www.w3.org/2000/svg">
<path d="M10.0426 11.6364H13.7017V25.9545C13.6951 27.267 13.4167 28.3973 12.8665 29.3452C12.3163 30.2865 11.5473 31.0123 10.5597 31.5227C9.5786 32.0265 8.43513 32.2784 7.12926 32.2784C5.93608 32.2784 4.86222 32.0663 3.90767 31.642C2.95975 31.2112 2.20739 30.5748 1.65057 29.733C1.09375 28.8911 0.815341 27.8437 0.815341 26.5909H4.48438C4.491 27.1411 4.61032 27.6151 4.84233 28.0128C5.08097 28.4105 5.40909 28.7154 5.8267 28.9276C6.24432 29.1397 6.72491 29.2457 7.26847 29.2457C7.85843 29.2457 8.3589 29.1231 8.76989 28.8778C9.18087 28.6259 9.49242 28.2547 9.70455 27.7642C9.9233 27.2737 10.036 26.6705 10.0426 25.9545V11.6364ZM17.5447 32V16.7273H21.1442V32H17.5447ZM19.3544 14.5597C18.7843 14.5597 18.2938 14.3707 17.8828 13.9929C17.4718 13.6084 17.2663 13.1477 17.2663 12.6108C17.2663 12.0672 17.4718 11.6065 17.8828 11.2287C18.2938 10.8442 18.7843 10.652 19.3544 10.652C19.9311 10.652 20.4216 10.8442 20.826 11.2287C21.237 11.6065 21.4425 12.0672 21.4425 12.6108C21.4425 13.1477 21.237 13.6084 20.826 13.9929C20.4216 14.3707 19.9311 14.5597 19.3544 14.5597ZM24.8455 32V16.7273H28.3356V19.2727H28.4947C28.7731 18.3911 29.2504 17.7116 29.9265 17.2344C30.6093 16.7505 31.3881 16.5085 32.2631 16.5085C32.462 16.5085 32.6841 16.5185 32.9293 16.5384C33.1812 16.5516 33.39 16.5748 33.5558 16.608V19.919C33.4033 19.866 33.1613 19.8196 32.8299 19.7798C32.5051 19.7334 32.1902 19.7102 31.8853 19.7102C31.229 19.7102 30.6391 19.8527 30.1154 20.1378C29.5984 20.4162 29.1907 20.804 28.8924 21.3011C28.5941 21.7983 28.445 22.3717 28.445 23.0213V32H24.8455ZM40.0685 32.3082C39.1007 32.3082 38.229 32.1359 37.4535 31.7912C36.6845 31.4399 36.0747 30.9228 35.6239 30.2401C35.1798 29.5573 34.9577 28.7154 34.9577 27.7145C34.9577 26.8527 35.1168 26.1402 35.435 25.5767C35.7532 25.0133 36.1874 24.5625 36.7376 24.2244C37.2878 23.8864 37.9076 23.6312 38.5969 23.4588C39.293 23.2798 40.0122 23.1506 40.7546 23.071C41.6495 22.9782 42.3754 22.8954 42.9322 22.8224C43.489 22.7429 43.8933 22.6236 44.1452 22.4645C44.4038 22.2988 44.533 22.0436 44.533 21.6989V21.6392C44.533 20.8902 44.311 20.3101 43.8668 19.8991C43.4227 19.4882 42.783 19.2827 41.9478 19.2827C41.0662 19.2827 40.3668 19.4749 39.8498 19.8594C39.3394 20.2438 38.9947 20.6979 38.8157 21.2216L35.4549 20.7443C35.7201 19.8163 36.1576 19.0407 36.7674 18.4176C37.3772 17.7879 38.123 17.3172 39.0046 17.0057C39.8862 16.6875 40.8607 16.5284 41.9279 16.5284C42.6637 16.5284 43.3962 16.6146 44.1254 16.7869C44.8545 16.9593 45.5207 17.2443 46.1239 17.642C46.7272 18.0331 47.2111 18.5668 47.5756 19.2429C47.9469 19.919 48.1325 20.7642 48.1325 21.7784V32H44.6722V29.902H44.5529C44.3342 30.3262 44.0259 30.724 43.6282 31.0952C43.2371 31.4598 42.7433 31.7547 42.1467 31.9801C41.5567 32.1989 40.864 32.3082 40.0685 32.3082ZM41.0032 29.6634C41.7257 29.6634 42.3522 29.5208 42.8825 29.2358C43.4128 28.9441 43.8204 28.5597 44.1055 28.0824C44.3971 27.6051 44.543 27.0848 44.543 26.5213V24.7216C44.4303 24.8144 44.238 24.9006 43.9663 24.9801C43.7011 25.0597 43.4028 25.1293 43.0714 25.1889C42.7399 25.2486 42.4118 25.3016 42.087 25.348C41.7622 25.3944 41.4805 25.4342 41.2418 25.4673C40.7049 25.5402 40.2243 25.6596 39.8001 25.8253C39.3758 25.991 39.0411 26.223 38.7958 26.5213C38.5505 26.813 38.4279 27.1908 38.4279 27.6548C38.4279 28.3177 38.6699 28.8182 39.1538 29.1562C39.6377 29.4943 40.2541 29.6634 41.0032 29.6634ZM55.3512 23.0511V32H51.7518V16.7273H55.1921V19.3224H55.3711C55.7224 18.4673 56.2826 17.7879 57.0515 17.2841C57.8271 16.7803 58.7849 16.5284 59.9251 16.5284C60.979 16.5284 61.8971 16.7538 62.6793 17.2045C63.4682 17.6553 64.078 18.3082 64.5089 19.1634C64.9464 20.0185 65.1618 21.0559 65.1552 22.2756V32H61.5558V22.8324C61.5558 21.8116 61.2906 21.0128 60.7603 20.4361C60.2366 19.8594 59.5108 19.571 58.5827 19.571C57.953 19.571 57.3929 19.7102 56.9023 19.9886C56.4184 20.2604 56.0373 20.6548 55.7589 21.1719C55.4871 21.6889 55.3512 22.3153 55.3512 23.0511Z" fill="#007BFF"/>
<circle cx="19.5" cy="12.5" r="2.5" fill="#FF6B6B"/>
</svg>
