<svg width="187" height="194" viewBox="0 0 187 194" fill="none" xmlns="http://www.w3.org/2000/svg">
<g clip-path="url(#clip0_24_29)">
<path d="M166.138 147.64L166.134 147.727L170.524 194H138.488L134.335 165.58L133 194H99.5L103.103 156.552L106.075 139.7V139.697L106.521 137.161H165.264L165.341 138.079L166.138 147.64Z" fill="#2F2E41"/>
<path d="M81.4741 174.464C84.867 175.08 88.4049 171.272 89.3763 165.957C89.8015 163.631 89.6643 161.402 89.0911 159.579L89.6114 156.515L98.3419 115.303C98.3419 115.303 114.419 83.2493 114.418 77.6845C114.418 72.1197 109.768 69.3907 109.768 69.3907L103.475 69.4494L83.7419 117.488L80.188 152.987L79.613 157.858C78.4317 159.362 77.5146 161.4 77.0895 163.726C76.1181 169.04 78.0812 173.848 81.4741 174.464Z" fill="#FFB6B6"/>
<path d="M145.484 49.5334L139.636 36.0523L120.627 39.3315L119.348 55.1924L145.484 49.5334Z" fill="#FFB6B6"/>
<path opacity="0.1" d="M145.484 49.5334L139.636 36.0523L120.627 39.3315L119.348 55.1924L145.484 49.5334Z" fill="black"/>
<path d="M186.791 77.5887C186.791 77.5887 173.266 52.4482 170.707 49.8978C169.568 48.7624 167.777 48.7466 166.14 49.0775L147.312 42.6107L140.93 39.0367L140.51 45.8362L119.558 49.5845C119.675 45.4379 120.262 43.8606 120.262 43.8606L112.585 52.8126L97.5977 60.0997L97.606 60.1653C96.5061 60.548 95.4634 61.2028 94.6734 62.2858C91.749 66.2937 83.707 115.117 83.707 115.117L100.888 118.761L103.226 104.136L104.909 117.303L106.188 141.897C106.188 141.897 129.583 161.937 140.915 154.65C152.247 147.363 166.138 147.727 166.138 147.727L166.484 136.327C166.731 135.934 166.869 135.703 166.869 135.703L166.503 95.2657V84.5055C169.288 88.3726 172.649 91.6983 176.556 93.256C189.35 98.3569 186.791 77.5887 186.791 77.5887Z" fill="#A8A29E"/>
<path d="M128.145 41.7034C137.802 41.7034 145.632 33.8997 145.632 24.2732C145.632 14.6468 137.802 6.84308 128.145 6.84308C118.487 6.84308 110.657 14.6468 110.657 24.2732C110.657 33.8997 118.487 41.7034 128.145 41.7034Z" fill="#FFB6B6"/>
<path d="M140.69 29.1992C140.69 29.1992 142.21 23.8944 145.632 24.2733C149.053 24.6522 149.813 21.6209 149.053 20.1052C148.293 18.5895 146.772 11.0112 146.772 11.0112C146.772 11.0112 147.532 5.70635 142.971 4.94852C138.409 4.19069 136.888 3.43285 136.128 1.91718C135.367 0.401516 123.963 -1.11415 120.161 1.15935C116.36 3.43285 113.318 7.79487 110.657 9.02411C107.996 10.2534 105.715 12.5269 107.236 16.316C108.757 20.1052 110.962 27.516 110.962 27.516C110.962 27.516 114.839 26.1679 115.599 28.4414C116.36 30.7149 113.318 27.6835 117.12 21.6208C120.922 15.5582 120.922 9.49552 127.004 11.769C133.087 14.0425 139.929 13.2847 139.169 17.8317C138.409 22.3787 140.69 29.1992 140.69 29.1992Z" fill="#2F2E41"/>
<path d="M139.62 167.379H6.81131C3.05548 167.379 0 164.333 0 160.59V90.2718C0 86.5285 3.05548 83.4827 6.81131 83.4827H139.62C143.376 83.4827 146.432 86.5285 146.432 90.2718V160.59C146.432 164.333 143.376 167.379 139.62 167.379Z" fill="white"/>
<path d="M139.62 167.379H6.81131C3.05548 167.379 0 164.333 0 160.59V90.2718C0 86.5285 3.05548 83.4827 6.81131 83.4827H139.62C143.376 83.4827 146.432 86.5285 146.432 90.2718V160.59C146.432 164.333 143.376 167.379 139.62 167.379ZM6.81131 84.6164C3.68279 84.6164 1.13744 87.1534 1.13744 90.2718V160.59C1.13744 163.708 3.68279 166.245 6.81131 166.245H139.62C142.749 166.245 145.294 163.708 145.294 160.59V90.2718C145.294 87.1534 142.749 84.6164 139.62 84.6164H6.81131Z" fill="#343A40"/>
<path d="M129.37 91.9857C130.312 91.9857 131.076 91.2243 131.076 90.2851C131.076 89.3459 130.312 88.5845 129.37 88.5845C128.428 88.5845 127.664 89.3459 127.664 90.2851C127.664 91.2243 128.428 91.9857 129.37 91.9857Z" fill="#343A40"/>
<path d="M133.92 91.9857C134.862 91.9857 135.626 91.2243 135.626 90.2851C135.626 89.3459 134.862 88.5845 133.92 88.5845C132.977 88.5845 132.214 89.3459 132.214 90.2851C132.214 91.2243 132.977 91.9857 133.92 91.9857Z" fill="#343A40"/>
<path d="M138.47 91.9857C139.412 91.9857 140.176 91.2243 140.176 90.2851C140.176 89.3459 139.412 88.5845 138.47 88.5845C137.527 88.5845 136.763 89.3459 136.763 90.2851C136.763 91.2243 137.527 91.9857 138.47 91.9857Z" fill="#343A40"/>
<path d="M9.66827 117.778C9.19785 117.778 8.81519 118.159 8.81519 118.628C8.81519 118.857 8.90377 119.068 9.06455 119.225C9.22673 119.39 9.43917 119.479 9.66827 119.479H137.332C137.803 119.479 138.185 119.097 138.185 118.628C138.185 118.4 138.097 118.188 137.936 118.032C137.774 117.867 137.561 117.778 137.332 117.778H9.66827Z" fill="#A8A29E"/>
<path d="M121.408 117.495V119.762H9.66827C9.35548 119.762 9.07112 119.637 8.86638 119.428C8.65592 119.224 8.53082 118.94 8.53082 118.628C8.53082 118.005 9.04268 117.495 9.66826 117.495H121.408Z" fill="#FF6B6B"/>
<path d="M135.91 113.243H124.536C123.282 113.243 122.261 112.226 122.261 110.976C122.261 109.725 123.282 108.708 124.536 108.708H135.91C137.165 108.708 138.185 109.725 138.185 110.976C138.185 112.226 137.165 113.243 135.91 113.243Z" fill="#A8A29E"/>
<path d="M61.408 101.339H10.5213C9.26699 101.339 8.24646 100.322 8.24646 99.0715C8.24646 97.8209 9.26699 96.804 10.5213 96.804H61.408C62.6624 96.804 63.6829 97.8209 63.6829 99.0715C63.6829 100.322 62.6624 101.339 61.408 101.339Z" fill="#A8A29E"/>
<path d="M9.66827 143.287C9.19785 143.287 8.81519 143.668 8.81519 144.137C8.81519 144.366 8.90377 144.577 9.06455 144.733C9.22673 144.899 9.43917 144.988 9.66827 144.988H137.332C137.803 144.988 138.185 144.606 138.185 144.137C138.185 143.909 138.097 143.697 137.936 143.541C137.774 143.376 137.561 143.287 137.332 143.287H9.66827Z" fill="#A8A29E"/>
<path d="M77.6166 143.004V145.271H9.66827C9.35548 145.271 9.07112 145.146 8.86638 144.937C8.65592 144.732 8.53082 144.449 8.53082 144.137C8.53082 143.514 9.04268 143.004 9.66826 143.004H77.6166Z" fill="#FF6B6B"/>
<path d="M135.91 138.752H124.536C123.282 138.752 122.261 137.735 122.261 136.485C122.261 135.234 123.282 134.217 124.536 134.217H135.91C137.165 134.217 138.185 135.234 138.185 136.485C138.185 137.735 137.165 138.752 135.91 138.752Z" fill="#A8A29E"/>
<path d="M155.823 43.0451C165.66 43.0451 173.635 35.264 173.635 25.6654C173.635 16.0669 165.66 8.28583 155.823 8.28583C145.986 8.28583 138.011 16.0669 138.011 25.6654C138.011 35.264 145.986 43.0451 155.823 43.0451Z" fill="#FF6B6B"/>
<path d="M161.868 16.8991C159.497 21.2029 157.126 25.5067 154.754 29.8106C153.243 27.149 151.74 24.4827 150.225 21.8232C149.702 20.9047 148.278 21.7308 148.803 22.6516C150.559 25.7346 152.297 28.8278 154.054 31.9108C154.354 32.4379 155.178 32.4501 155.475 31.9108C158.08 27.183 160.685 22.4553 163.29 17.7275C163.801 16.8011 162.379 15.972 161.868 16.8991Z" fill="white"/>
<path d="M180.411 71.4761L162.665 63.0145C162.665 63.0145 161.952 57.3511 158.624 55.3311C158.058 53.9857 157.407 52.5077 156.816 51.3365C155.354 48.4404 157.547 42.975 155.72 42.975C153.892 42.975 151.19 48.7229 151.333 50.2621C151.443 51.4437 152.423 53.5066 152.625 55.3124C150.396 56.1502 148.598 57.5863 147.416 58.7297C146.393 59.7192 146.013 61.1955 146.413 62.5593C147.571 66.5115 150.467 74.6739 154.623 74.6739C160.106 74.6739 161.568 73.5808 161.568 73.5808C161.568 73.5808 172.9 87.7906 181.308 88.8837C189.715 89.9768 180.411 71.4761 180.411 71.4761Z" fill="#FFB6B6"/>
</g>
<defs>
<clipPath id="clip0_24_29">
<rect width="187" height="194" fill="white"/>
</clipPath>
</defs>
</svg>
