<svg width="25" height="30" viewBox="0 0 25 30" fill="none" xmlns="http://www.w3.org/2000/svg">
<path d="M13 19.4C9.89091 19.4 7.10909 17.72 5.8 15H4C5.39091 18.52 8.90909 21 13 21C17.0909 21 20.6091 18.52 22 15H20.2C18.8909 17.72 16.1091 19.4 13 19.4Z" fill="#343A40"/>
<circle cx="13" cy="15" r="2.5" stroke="#343A40"/>
<path d="M21.95 14.69C21.9925 14.817 22.0091 14.9512 21.9987 15.0847C21.9884 15.2181 21.9514 15.3482 21.8899 15.4671C21.8284 15.586 21.7436 15.6913 21.6406 15.7769C21.5376 15.8624 21.4185 15.9264 21.2903 15.965C21.1622 16.0036 21.0275 16.0162 20.8944 16.0018C20.7613 15.9874 20.6325 15.9465 20.5155 15.8814C20.3985 15.8163 20.2958 15.7284 20.2134 15.6229C20.131 15.5173 20.0707 15.3963 20.036 15.267C17.95 8.28105 8.05396 8.28005 5.96596 15.263C5.92853 15.389 5.86667 15.5063 5.7839 15.6083C5.70112 15.7104 5.59907 15.7951 5.48355 15.8577C5.36803 15.9203 5.24132 15.9595 5.11065 15.9731C4.97997 15.9867 4.8479 15.9745 4.72196 15.937C4.59602 15.8996 4.47869 15.8378 4.37666 15.755C4.27463 15.6722 4.18991 15.5702 4.12732 15.4546C4.06473 15.3391 4.02551 15.2124 4.01189 15.0817C3.99828 14.9511 4.01053 14.819 4.04796 14.693C4.41156 13.4418 5.02868 12.2787 5.86096 11.276L4.58596 10C4.4038 9.81144 4.30301 9.55884 4.30529 9.29664C4.30757 9.03445 4.41273 8.78364 4.59814 8.59823C4.78355 8.41282 5.03436 8.30765 5.29656 8.30537C5.55876 8.30309 5.81136 8.40389 5.99996 8.58605L7.31096 9.89705C8.01838 9.36334 8.79996 8.93583 9.63096 8.62805L9.27396 7.29305C9.23588 7.165 9.22384 7.03061 9.23855 6.89783C9.25326 6.76505 9.29444 6.63656 9.35963 6.51996C9.42483 6.40335 9.51273 6.30099 9.61814 6.21892C9.72355 6.13685 9.84434 6.07673 9.97337 6.04212C10.1024 6.00751 10.2371 5.9991 10.3694 6.01739C10.5017 6.03569 10.6291 6.08031 10.7439 6.14863C10.8587 6.21695 10.9586 6.30758 11.0378 6.41517C11.117 6.52276 11.1738 6.64513 11.205 6.77505L11.569 8.13205C12.516 7.99205 13.484 7.99205 14.431 8.13205L14.795 6.77505C14.8261 6.64513 14.8829 6.52276 14.9621 6.41517C15.0413 6.30758 15.1413 6.21695 15.2561 6.14863C15.3709 6.08031 15.4982 6.03569 15.6305 6.01739C15.7629 5.9991 15.8975 6.00751 16.0265 6.04212C16.1556 6.07673 16.2764 6.13685 16.3818 6.21892C16.4872 6.30099 16.5751 6.40335 16.6403 6.51996C16.7055 6.63656 16.7467 6.76505 16.7614 6.89783C16.7761 7.03061 16.764 7.165 16.726 7.29305L16.369 8.62805C17.2 8.93614 17.9816 9.36399 18.689 9.89805L19.999 8.58605C20.1865 8.39827 20.4409 8.29268 20.7063 8.29249C20.9716 8.2923 21.2262 8.39754 21.414 8.58505C21.6017 8.77256 21.7073 9.02698 21.7075 9.29234C21.7077 9.5577 21.6025 9.81227 21.415 10L20.14 11.275C20.924 12.211 21.55 13.349 21.952 14.689L21.95 14.69Z" fill="#343A40"/>
</svg>
