<svg width="218" height="129" viewBox="0 0 218 129" fill="none" xmlns="http://www.w3.org/2000/svg">
<rect y="9" width="208" height="120" rx="8" fill="#EEF4F9"/>
<path d="M12.5057 69.5455H16.1534V81.7159C16.1534 82.8409 15.9006 83.8182 15.3949 84.6477C14.8949 85.4773 14.1989 86.1165 13.3068 86.5653C12.4148 87.0142 11.3778 87.2386 10.196 87.2386C9.14489 87.2386 8.19034 87.054 7.33239 86.6847C6.48011 86.3097 5.80398 85.7415 5.30398 84.9801C4.80398 84.2131 4.55682 83.25 4.5625 82.0909H8.2358C8.24716 82.5511 8.34091 82.946 8.51705 83.2756C8.69886 83.5994 8.94602 83.8494 9.25852 84.0256C9.5767 84.196 9.9517 84.2812 10.3835 84.2812C10.8381 84.2812 11.2216 84.1847 11.5341 83.9915C11.8523 83.7926 12.0938 83.5028 12.2585 83.1222C12.4233 82.7415 12.5057 82.2727 12.5057 81.7159V69.5455ZM25.0511 87.2557C23.7273 87.2557 22.5824 86.9744 21.6165 86.4119C20.6563 85.8437 19.9148 85.054 19.392 84.0426C18.8693 83.0256 18.608 81.8466 18.608 80.5057C18.608 79.1534 18.8693 77.9716 19.392 76.9602C19.9148 75.9432 20.6563 75.1534 21.6165 74.5909C22.5824 74.0227 23.7273 73.7386 25.0511 73.7386C26.375 73.7386 27.517 74.0227 28.4773 74.5909C29.4432 75.1534 30.1875 75.9432 30.7102 76.9602C31.233 77.9716 31.4943 79.1534 31.4943 80.5057C31.4943 81.8466 31.233 83.0256 30.7102 84.0426C30.1875 85.054 29.4432 85.8437 28.4773 86.4119C27.517 86.9744 26.375 87.2557 25.0511 87.2557ZM25.0682 84.4432C25.6705 84.4432 26.1733 84.2727 26.5767 83.9318C26.9801 83.5852 27.2841 83.1136 27.4886 82.517C27.6989 81.9205 27.804 81.2415 27.804 80.4801C27.804 79.7188 27.6989 79.0398 27.4886 78.4432C27.2841 77.8466 26.9801 77.375 26.5767 77.0284C26.1733 76.6818 25.6705 76.5085 25.0682 76.5085C24.4602 76.5085 23.9489 76.6818 23.5341 77.0284C23.125 77.375 22.8153 77.8466 22.6051 78.4432C22.4006 79.0398 22.2983 79.7188 22.2983 80.4801C22.2983 81.2415 22.4006 81.9205 22.6051 82.517C22.8153 83.1136 23.125 83.5852 23.5341 83.9318C23.9489 84.2727 24.4602 84.4432 25.0682 84.4432ZM33.9233 87V69.5455H37.554V76.108H37.6648C37.8239 75.7557 38.054 75.3977 38.3551 75.0341C38.6619 74.6648 39.0597 74.358 39.5483 74.1136C40.0426 73.8636 40.6563 73.7386 41.3892 73.7386C42.3438 73.7386 43.2244 73.9886 44.0312 74.4886C44.8381 74.983 45.483 75.7301 45.9659 76.7301C46.4489 77.7244 46.6903 78.9716 46.6903 80.4716C46.6903 81.9318 46.4545 83.1648 45.983 84.1705C45.517 85.1705 44.8807 85.929 44.0739 86.446C43.2727 86.9574 42.375 87.2131 41.3807 87.2131C40.6761 87.2131 40.0767 87.0966 39.5824 86.8636C39.0938 86.6307 38.6932 86.3381 38.3807 85.9858C38.0682 85.6278 37.8295 85.267 37.6648 84.9034H37.5028V87H33.9233ZM37.4773 80.4545C37.4773 81.233 37.5852 81.9119 37.8011 82.4915C38.017 83.071 38.3295 83.5227 38.7386 83.8466C39.1477 84.1648 39.6449 84.3239 40.2301 84.3239C40.821 84.3239 41.321 84.1619 41.7301 83.8381C42.1392 83.5085 42.4489 83.054 42.6591 82.4744C42.875 81.8892 42.983 81.2159 42.983 80.4545C42.983 79.6989 42.8778 79.0341 42.6676 78.4602C42.4574 77.8864 42.1477 77.4375 41.7386 77.1136C41.3295 76.7898 40.8267 76.6278 40.2301 76.6278C39.6392 76.6278 39.1392 76.7841 38.7301 77.0966C38.3267 77.4091 38.017 77.8523 37.8011 78.4261C37.5852 79 37.4773 79.6761 37.4773 80.4545Z" fill="#CED4DA"/>
<path d="M21.5568 108.273C21.5568 110.176 21.196 111.795 20.4744 113.131C19.7585 114.466 18.7813 115.486 17.5426 116.19C16.3097 116.889 14.9233 117.239 13.3835 117.239C11.8324 117.239 10.4403 116.886 9.20739 116.182C7.97443 115.477 7 114.457 6.28409 113.122C5.56818 111.787 5.21023 110.17 5.21023 108.273C5.21023 106.369 5.56818 104.75 6.28409 103.415C7 102.08 7.97443 101.062 9.20739 100.364C10.4403 99.6591 11.8324 99.3068 13.3835 99.3068C14.9233 99.3068 16.3097 99.6591 17.5426 100.364C18.7813 101.062 19.7585 102.08 20.4744 103.415C21.196 104.75 21.5568 106.369 21.5568 108.273ZM17.8153 108.273C17.8153 107.04 17.6307 106 17.2614 105.153C16.8977 104.307 16.3835 103.665 15.7188 103.227C15.054 102.79 14.2756 102.571 13.3835 102.571C12.4915 102.571 11.7131 102.79 11.0483 103.227C10.3835 103.665 9.86648 104.307 9.49716 105.153C9.13352 106 8.9517 107.04 8.9517 108.273C8.9517 109.506 9.13352 110.545 9.49716 111.392C9.86648 112.239 10.3835 112.881 11.0483 113.318C11.7131 113.756 12.4915 113.974 13.3835 113.974C14.2756 113.974 15.054 113.756 15.7188 113.318C16.3835 112.881 16.8977 112.239 17.2614 111.392C17.6307 110.545 17.8153 109.506 17.8153 108.273ZM24.2223 121.909V103.909H27.8018V106.108H27.9638C28.1229 105.756 28.353 105.398 28.6541 105.034C28.9609 104.665 29.3587 104.358 29.8473 104.114C30.3416 103.864 30.9553 103.739 31.6882 103.739C32.6428 103.739 33.5234 103.989 34.3303 104.489C35.1371 104.983 35.782 105.73 36.2649 106.73C36.7479 107.724 36.9893 108.972 36.9893 110.472C36.9893 111.932 36.7536 113.165 36.282 114.17C35.8161 115.17 35.1797 115.929 34.3729 116.446C33.5717 116.957 32.674 117.213 31.6797 117.213C30.9751 117.213 30.3757 117.097 29.8814 116.864C29.3928 116.631 28.9922 116.338 28.6797 115.986C28.3672 115.628 28.1286 115.267 27.9638 114.903H27.853V121.909H24.2223ZM27.7763 110.455C27.7763 111.233 27.8842 111.912 28.1001 112.491C28.3161 113.071 28.6286 113.523 29.0376 113.847C29.4467 114.165 29.9439 114.324 30.5291 114.324C31.12 114.324 31.62 114.162 32.0291 113.838C32.4382 113.509 32.7479 113.054 32.9581 112.474C33.174 111.889 33.282 111.216 33.282 110.455C33.282 109.699 33.1768 109.034 32.9666 108.46C32.7564 107.886 32.4467 107.437 32.0376 107.114C31.6286 106.79 31.1257 106.628 30.5291 106.628C29.9382 106.628 29.4382 106.784 29.0291 107.097C28.6257 107.409 28.3161 107.852 28.1001 108.426C27.8842 109 27.7763 109.676 27.7763 110.455ZM39.4098 121.909V103.909H42.9893V106.108H43.1513C43.3104 105.756 43.5405 105.398 43.8416 105.034C44.1484 104.665 44.5462 104.358 45.0348 104.114C45.5291 103.864 46.1428 103.739 46.8757 103.739C47.8303 103.739 48.7109 103.989 49.5178 104.489C50.3246 104.983 50.9695 105.73 51.4524 106.73C51.9354 107.724 52.1768 108.972 52.1768 110.472C52.1768 111.932 51.9411 113.165 51.4695 114.17C51.0036 115.17 50.3672 115.929 49.5604 116.446C48.7592 116.957 47.8615 117.213 46.8672 117.213C46.1626 117.213 45.5632 117.097 45.0689 116.864C44.5803 116.631 44.1797 116.338 43.8672 115.986C43.5547 115.628 43.3161 115.267 43.1513 114.903H43.0405V121.909H39.4098ZM42.9638 110.455C42.9638 111.233 43.0717 111.912 43.2876 112.491C43.5036 113.071 43.8161 113.523 44.2251 113.847C44.6342 114.165 45.1314 114.324 45.7166 114.324C46.3075 114.324 46.8075 114.162 47.2166 113.838C47.6257 113.509 47.9354 113.054 48.1456 112.474C48.3615 111.889 48.4695 111.216 48.4695 110.455C48.4695 109.699 48.3643 109.034 48.1541 108.46C47.9439 107.886 47.6342 107.437 47.2251 107.114C46.8161 106.79 46.3132 106.628 45.7166 106.628C45.1257 106.628 44.6257 106.784 44.2166 107.097C43.8132 107.409 43.5036 107.852 43.2876 108.426C43.0717 109 42.9638 109.676 42.9638 110.455ZM60.5121 117.256C59.1882 117.256 58.0433 116.974 57.0774 116.412C56.1172 115.844 55.3757 115.054 54.853 114.043C54.3303 113.026 54.0689 111.847 54.0689 110.506C54.0689 109.153 54.3303 107.972 54.853 106.96C55.3757 105.943 56.1172 105.153 57.0774 104.591C58.0433 104.023 59.1882 103.739 60.5121 103.739C61.8359 103.739 62.978 104.023 63.9382 104.591C64.9041 105.153 65.6484 105.943 66.1712 106.96C66.6939 107.972 66.9553 109.153 66.9553 110.506C66.9553 111.847 66.6939 113.026 66.1712 114.043C65.6484 115.054 64.9041 115.844 63.9382 116.412C62.978 116.974 61.8359 117.256 60.5121 117.256ZM60.5291 114.443C61.1314 114.443 61.6342 114.273 62.0376 113.932C62.4411 113.585 62.745 113.114 62.9496 112.517C63.1598 111.92 63.2649 111.241 63.2649 110.48C63.2649 109.719 63.1598 109.04 62.9496 108.443C62.745 107.847 62.4411 107.375 62.0376 107.028C61.6342 106.682 61.1314 106.509 60.5291 106.509C59.9212 106.509 59.4098 106.682 58.995 107.028C58.5859 107.375 58.2763 107.847 58.0661 108.443C57.8615 109.04 57.7592 109.719 57.7592 110.48C57.7592 111.241 57.8615 111.92 58.0661 112.517C58.2763 113.114 58.5859 113.585 58.995 113.932C59.4098 114.273 59.9212 114.443 60.5291 114.443ZM69.3161 117V103.909H72.8359V106.193H72.9723C73.2109 105.381 73.6115 104.767 74.174 104.352C74.7365 103.932 75.3842 103.722 76.1172 103.722C76.299 103.722 76.495 103.733 76.7053 103.756C76.9155 103.778 77.1001 103.81 77.2592 103.849V107.071C77.0888 107.02 76.853 106.974 76.5518 106.935C76.2507 106.895 75.9751 106.875 75.7251 106.875C75.1911 106.875 74.7138 106.991 74.2933 107.224C73.8786 107.452 73.549 107.77 73.3047 108.179C73.0661 108.588 72.9467 109.06 72.9467 109.594V117H69.3161ZM86.7557 103.909V106.636H78.8722V103.909H86.7557ZM80.6619 100.773H84.2926V112.977C84.2926 113.312 84.3438 113.574 84.446 113.761C84.5483 113.943 84.6903 114.071 84.8722 114.145C85.0597 114.219 85.2756 114.256 85.5199 114.256C85.6903 114.256 85.8608 114.241 86.0312 114.213C86.2017 114.179 86.3324 114.153 86.4233 114.136L86.9943 116.838C86.8125 116.895 86.5568 116.96 86.2273 117.034C85.8977 117.114 85.4972 117.162 85.0256 117.179C84.1506 117.213 83.3835 117.097 82.7244 116.83C82.071 116.562 81.5625 116.148 81.1989 115.585C80.8352 115.023 80.6563 114.312 80.6619 113.455V100.773ZM97.5156 111.426V103.909H101.146V117H97.6605V114.622H97.5241C97.2287 115.389 96.7372 116.006 96.0497 116.472C95.3679 116.937 94.5355 117.17 93.5526 117.17C92.6776 117.17 91.9077 116.972 91.2429 116.574C90.5781 116.176 90.0582 115.611 89.6832 114.878C89.3139 114.145 89.1264 113.267 89.1207 112.244V103.909H92.7514V111.597C92.7571 112.369 92.9645 112.98 93.3736 113.429C93.7827 113.878 94.331 114.102 95.0185 114.102C95.456 114.102 95.8651 114.003 96.2457 113.804C96.6264 113.599 96.9332 113.298 97.1662 112.901C97.4048 112.503 97.5213 112.011 97.5156 111.426ZM107.681 109.432V117H104.05V103.909H107.511V106.219H107.664C107.954 105.457 108.44 104.855 109.121 104.412C109.803 103.963 110.63 103.739 111.602 103.739C112.511 103.739 113.303 103.938 113.979 104.335C114.656 104.733 115.181 105.301 115.556 106.04C115.931 106.773 116.119 107.648 116.119 108.665V117H112.488V109.312C112.494 108.511 112.289 107.886 111.874 107.438C111.46 106.983 110.888 106.756 110.161 106.756C109.673 106.756 109.241 106.861 108.866 107.071C108.496 107.281 108.207 107.588 107.996 107.991C107.792 108.389 107.687 108.869 107.681 109.432ZM118.98 117V103.909H122.611V117H118.98ZM120.804 102.222C120.264 102.222 119.801 102.043 119.415 101.685C119.034 101.321 118.844 100.886 118.844 100.381C118.844 99.8807 119.034 99.4517 119.415 99.0938C119.801 98.7301 120.264 98.5483 120.804 98.5483C121.344 98.5483 121.804 98.7301 122.185 99.0938C122.571 99.4517 122.764 99.8807 122.764 100.381C122.764 100.886 122.571 101.321 122.185 101.685C121.804 102.043 121.344 102.222 120.804 102.222ZM132.482 103.909V106.636H124.599V103.909H132.482ZM126.388 100.773H130.019V112.977C130.019 113.312 130.07 113.574 130.173 113.761C130.275 113.943 130.417 114.071 130.599 114.145C130.786 114.219 131.002 114.256 131.246 114.256C131.417 114.256 131.587 114.241 131.758 114.213C131.928 114.179 132.059 114.153 132.15 114.136L132.721 116.838C132.539 116.895 132.283 116.96 131.954 117.034C131.624 117.114 131.224 117.162 130.752 117.179C129.877 117.213 129.11 117.097 128.451 116.83C127.798 116.562 127.289 116.148 126.925 115.585C126.562 115.023 126.383 114.312 126.388 113.455V100.773ZM137.089 121.909C136.629 121.909 136.197 121.872 135.793 121.798C135.396 121.73 135.066 121.642 134.805 121.534L135.623 118.824C136.049 118.955 136.433 119.026 136.773 119.037C137.12 119.048 137.418 118.969 137.668 118.798C137.924 118.628 138.131 118.338 138.29 117.929L138.504 117.375L133.808 103.909H137.626L140.336 113.523H140.472L143.208 103.909H147.052L141.964 118.415C141.719 119.119 141.387 119.733 140.967 120.256C140.552 120.784 140.026 121.19 139.39 121.474C138.754 121.764 137.987 121.909 137.089 121.909Z" fill="#CED4DA"/>
<path d="M191.24 45.4326H150.982V97.468H191.24V45.4326Z" fill="#FFB6B6"/>
<path d="M175.942 2.18287L196.071 4.99559L194.461 49.296L217.006 88.6742L188.02 101.331C188.02 101.331 165.475 64.0628 161.45 40.8578C157.424 17.6528 159.839 0.776489 159.839 0.776489L175.942 2.18287Z" fill="#E6E6E6"/>
<path d="M160.644 3.58924L140.515 6.40196L142.125 50.7024L137.294 91.4869L148.567 102.738C148.567 102.738 171.111 65.4692 175.137 42.2642C179.163 19.0592 176.747 2.18286 176.747 2.18286L160.644 3.58924Z" fill="#E6E6E6"/>
<path d="M191.643 6.05036L196.071 4.99559C196.071 4.99559 211.772 3.23763 214.187 8.86309C216.603 14.4885 215.798 47.5381 215.798 47.5381C215.798 47.5381 219.952 88.1011 203.785 88.5634C187.617 89.0257 190.838 55.273 190.838 55.273L191.643 6.05036Z" fill="#E6E6E6"/>
<path d="M158.228 6.05036L153.8 4.99559C153.8 4.99559 138.099 3.23763 135.684 8.86309C133.268 14.4886 134.073 47.5381 134.073 47.5381C134.073 47.5381 129.919 88.1011 146.086 88.5634C162.254 89.0258 159.033 55.273 159.033 55.273L158.228 6.05036Z" fill="#E6E6E6"/>
<path d="M202.971 39.42H141.733V53.3114H202.971V39.42Z" fill="#007BFF"/>
<path d="M180.702 1.21858H164.796V93.9438H180.702V1.21858Z" fill="#007BFF"/>
<path opacity="0.2" d="M181.29 52.2656C181.403 51.883 181.47 51.4853 181.486 51.0754L201.38 35.2526L184.281 27.9596L176.745 45.5103C176.23 45.3928 175.692 45.3238 175.135 45.3238C174.839 45.3238 174.55 45.3476 174.265 45.3818L166.784 27.9596L149.685 35.2526L168.797 50.4535C168.785 50.5949 168.772 50.7363 168.772 50.8804C168.772 51.3596 168.849 51.822 168.98 52.2656C157.265 55.4631 152.469 65.1191 152.469 65.1191L167.182 75.5377C166.304 67.874 171.663 60.0281 174.56 56.4117C174.75 56.4265 174.941 56.437 175.135 56.437C175.329 56.437 175.52 56.4265 175.71 56.4117C178.607 60.0281 183.965 67.874 183.088 75.5377L197.801 65.1191C197.801 65.1191 193.005 55.4631 181.29 52.2656Z" fill="black"/>
<path d="M183.45 71.7834C183.279 71.7834 183.106 71.7509 182.942 71.6842C182.529 71.5158 182.268 71.1649 182.261 70.7682C182.141 64.0495 177.754 57.4554 175.15 54.1228C174.976 53.9002 174.676 53.7674 174.346 53.7674H174.345C174.004 53.7674 173.703 53.9002 173.529 54.1228C170.925 57.4554 166.539 64.0495 166.418 70.7682C166.411 71.1646 166.15 71.5158 165.737 71.6842C165.32 71.8548 164.838 71.8032 164.481 71.5504L152.252 62.8906C151.816 62.5813 151.687 62.0397 151.948 61.6025C153.184 59.5234 157.943 52.516 167.283 49.6345C167.7 49.5059 167.953 49.1435 167.898 48.753C167.868 48.5349 167.853 48.316 167.853 48.1022C167.853 47.8471 167.742 47.6154 167.546 47.4602L149.965 33.4765C149.674 33.2446 149.533 32.9026 149.589 32.5616C149.644 32.2207 149.889 31.9267 150.244 31.7756L164.882 25.5324C165.182 25.4042 165.532 25.3928 165.843 25.5006C166.154 25.6086 166.4 25.8274 166.517 26.1008L173.304 41.9076C173.444 42.2339 173.803 42.4469 174.211 42.438C174.519 42.4318 174.831 42.4473 175.142 42.4826C175.58 42.5338 175.995 42.3177 176.148 41.9593L182.958 26.1008C183.075 25.8274 183.32 25.6086 183.631 25.5006C183.942 25.3929 184.293 25.4043 184.593 25.5324L199.231 31.7756C199.585 31.9267 199.83 32.2207 199.886 32.5619C199.942 32.9026 199.801 33.2446 199.509 33.4765L181.09 48.127C180.918 48.2635 180.811 48.4499 180.789 48.6516C180.784 48.6952 180.779 48.7388 180.773 48.7822C180.722 49.149 180.983 49.5072 181.393 49.6337C190.736 52.5145 195.495 59.5232 196.732 61.6025C196.992 62.0397 196.864 62.5813 196.427 62.8906L184.198 71.5504C183.981 71.7043 183.717 71.7834 183.45 71.7834Z" fill="#007BFF"/>
<path d="M159.109 2.2482C154.638 1.25768 149.57 5.42751 147.787 11.5643C147.036 14.0072 146.966 16.5716 147.583 19.0429L145.662 26.0188L145.521 26.0123L130.369 57.1976C126.846 64.4486 127.219 72.7729 131.712 79.6024C134.385 83.6651 137.894 86.3963 142.014 83.6083C148.85 78.9819 153.316 52.4931 155.355 37.2769L160.069 21.8098C161.961 19.8938 163.3 17.61 163.974 15.1493C165.758 9.01482 163.579 3.23878 159.109 2.2482Z" fill="#FFB6B6"/>
<path d="M186.892 4.90059C191.362 3.91007 196.43 8.0799 198.213 14.2167C198.964 16.6596 199.034 19.224 198.417 21.6953L200.338 28.6712L200.48 28.6647L215.631 59.85C219.154 67.1009 218.782 75.4252 214.288 82.2548C211.615 86.3175 208.107 89.0487 203.986 86.2607C197.15 81.6343 192.685 55.1455 190.646 39.9292L185.932 24.4621C184.039 22.5462 182.7 20.2623 182.026 17.8017C180.243 11.6672 182.421 5.89117 186.892 4.90059Z" fill="#FFB6B6"/>
</svg>
